%TF.GenerationSoftware,KiCad,Pcbnew,6.0.11-2627ca5db0~126~ubuntu20.04.1*%
%TF.CreationDate,2024-06-24T23:06:26+02:00*%
%TF.ProjectId,IRstepper,49527374-6570-4706-9572-2e6b69636164,rev?*%
%TF.SameCoordinates,Original*%
%TF.FileFunction,Drillmap*%
%TF.FilePolarity,Positive*%
%FSLAX45Y45*%
G04 Gerber Fmt 4.5, Leading zero omitted, Abs format (unit mm)*
G04 Created by KiCad (PCBNEW 6.0.11-2627ca5db0~126~ubuntu20.04.1) date 2024-06-24 23:06:26*
%MOMM*%
%LPD*%
G01*
G04 APERTURE LIST*
%ADD10C,0.100000*%
%ADD11C,0.200000*%
G04 APERTURE END LIST*
D10*
X9000000Y-1600200D02*
X13500000Y-1600000D01*
X9000000Y-11000000D02*
X13500000Y-11000000D01*
X13500000Y-11000000D02*
X13500000Y-1600000D01*
X9000000Y-11000000D02*
X9000000Y-1600200D01*
D11*
X9252619Y-11315476D02*
X9252619Y-11115476D01*
X9300238Y-11115476D01*
X9328810Y-11125000D01*
X9347857Y-11144048D01*
X9357381Y-11163095D01*
X9366905Y-11201190D01*
X9366905Y-11229762D01*
X9357381Y-11267857D01*
X9347857Y-11286905D01*
X9328810Y-11305952D01*
X9300238Y-11315476D01*
X9252619Y-11315476D01*
X9452619Y-11315476D02*
X9452619Y-11182143D01*
X9452619Y-11220238D02*
X9462143Y-11201190D01*
X9471667Y-11191667D01*
X9490714Y-11182143D01*
X9509762Y-11182143D01*
X9576429Y-11315476D02*
X9576429Y-11182143D01*
X9576429Y-11115476D02*
X9566905Y-11125000D01*
X9576429Y-11134524D01*
X9585952Y-11125000D01*
X9576429Y-11115476D01*
X9576429Y-11134524D01*
X9700238Y-11315476D02*
X9681190Y-11305952D01*
X9671667Y-11286905D01*
X9671667Y-11115476D01*
X9805000Y-11315476D02*
X9785952Y-11305952D01*
X9776429Y-11286905D01*
X9776429Y-11115476D01*
X10033571Y-11315476D02*
X10033571Y-11115476D01*
X10100238Y-11258333D01*
X10166905Y-11115476D01*
X10166905Y-11315476D01*
X10347857Y-11315476D02*
X10347857Y-11210714D01*
X10338333Y-11191667D01*
X10319286Y-11182143D01*
X10281190Y-11182143D01*
X10262143Y-11191667D01*
X10347857Y-11305952D02*
X10328810Y-11315476D01*
X10281190Y-11315476D01*
X10262143Y-11305952D01*
X10252619Y-11286905D01*
X10252619Y-11267857D01*
X10262143Y-11248809D01*
X10281190Y-11239286D01*
X10328810Y-11239286D01*
X10347857Y-11229762D01*
X10443095Y-11182143D02*
X10443095Y-11382143D01*
X10443095Y-11191667D02*
X10462143Y-11182143D01*
X10500238Y-11182143D01*
X10519286Y-11191667D01*
X10528810Y-11201190D01*
X10538333Y-11220238D01*
X10538333Y-11277381D01*
X10528810Y-11296428D01*
X10519286Y-11305952D01*
X10500238Y-11315476D01*
X10462143Y-11315476D01*
X10443095Y-11305952D01*
X10624048Y-11296428D02*
X10633571Y-11305952D01*
X10624048Y-11315476D01*
X10614524Y-11305952D01*
X10624048Y-11296428D01*
X10624048Y-11315476D01*
X10624048Y-11191667D02*
X10633571Y-11201190D01*
X10624048Y-11210714D01*
X10614524Y-11201190D01*
X10624048Y-11191667D01*
X10624048Y-11210714D01*
M02*
