%TF.GenerationSoftware,KiCad,Pcbnew,6.0.11-2627ca5db0~126~ubuntu20.04.1*%
%TF.CreationDate,2024-06-24T23:06:08+02:00*%
%TF.ProjectId,IRstepper,49527374-6570-4706-9572-2e6b69636164,rev?*%
%TF.SameCoordinates,Original*%
%TF.FileFunction,Legend,Bot*%
%TF.FilePolarity,Positive*%
%FSLAX46Y46*%
G04 Gerber Fmt 4.6, Leading zero omitted, Abs format (unit mm)*
G04 Created by KiCad (PCBNEW 6.0.11-2627ca5db0~126~ubuntu20.04.1) date 2024-06-24 23:06:08*
%MOMM*%
%LPD*%
G01*
G04 APERTURE LIST*
%ADD10C,0.130000*%
%ADD11C,0.300000*%
G04 APERTURE END LIST*
D10*
X122667142Y-55779142D02*
X122667142Y-54879142D01*
X122281428Y-55779142D02*
X122281428Y-55307714D01*
X122324285Y-55222000D01*
X122410000Y-55179142D01*
X122538571Y-55179142D01*
X122624285Y-55222000D01*
X122667142Y-55264857D01*
X121981428Y-55179142D02*
X121638571Y-55179142D01*
X121852857Y-54879142D02*
X121852857Y-55650571D01*
X121810000Y-55736285D01*
X121724285Y-55779142D01*
X121638571Y-55779142D01*
X121467142Y-55179142D02*
X121124285Y-55179142D01*
X121338571Y-54879142D02*
X121338571Y-55650571D01*
X121295714Y-55736285D01*
X121210000Y-55779142D01*
X121124285Y-55779142D01*
X120824285Y-55179142D02*
X120824285Y-56079142D01*
X120824285Y-55222000D02*
X120738571Y-55179142D01*
X120567142Y-55179142D01*
X120481428Y-55222000D01*
X120438571Y-55264857D01*
X120395714Y-55350571D01*
X120395714Y-55607714D01*
X120438571Y-55693428D01*
X120481428Y-55736285D01*
X120567142Y-55779142D01*
X120738571Y-55779142D01*
X120824285Y-55736285D01*
X120052857Y-55736285D02*
X119967142Y-55779142D01*
X119795714Y-55779142D01*
X119710000Y-55736285D01*
X119667142Y-55650571D01*
X119667142Y-55607714D01*
X119710000Y-55522000D01*
X119795714Y-55479142D01*
X119924285Y-55479142D01*
X120010000Y-55436285D01*
X120052857Y-55350571D01*
X120052857Y-55307714D01*
X120010000Y-55222000D01*
X119924285Y-55179142D01*
X119795714Y-55179142D01*
X119710000Y-55222000D01*
X119281428Y-55693428D02*
X119238571Y-55736285D01*
X119281428Y-55779142D01*
X119324285Y-55736285D01*
X119281428Y-55693428D01*
X119281428Y-55779142D01*
X119281428Y-55222000D02*
X119238571Y-55264857D01*
X119281428Y-55307714D01*
X119324285Y-55264857D01*
X119281428Y-55222000D01*
X119281428Y-55307714D01*
X118210000Y-54836285D02*
X118981428Y-55993428D01*
X117267142Y-54836285D02*
X118038571Y-55993428D01*
X116581428Y-55179142D02*
X116581428Y-55907714D01*
X116624285Y-55993428D01*
X116667142Y-56036285D01*
X116752857Y-56079142D01*
X116881428Y-56079142D01*
X116967142Y-56036285D01*
X116581428Y-55736285D02*
X116667142Y-55779142D01*
X116838571Y-55779142D01*
X116924285Y-55736285D01*
X116967142Y-55693428D01*
X117010000Y-55607714D01*
X117010000Y-55350571D01*
X116967142Y-55264857D01*
X116924285Y-55222000D01*
X116838571Y-55179142D01*
X116667142Y-55179142D01*
X116581428Y-55222000D01*
X116152857Y-55779142D02*
X116152857Y-55179142D01*
X116152857Y-54879142D02*
X116195714Y-54922000D01*
X116152857Y-54964857D01*
X116110000Y-54922000D01*
X116152857Y-54879142D01*
X116152857Y-54964857D01*
X115852857Y-55179142D02*
X115510000Y-55179142D01*
X115724285Y-54879142D02*
X115724285Y-55650571D01*
X115681428Y-55736285D01*
X115595714Y-55779142D01*
X115510000Y-55779142D01*
X115210000Y-55779142D02*
X115210000Y-54879142D01*
X114824285Y-55779142D02*
X114824285Y-55307714D01*
X114867142Y-55222000D01*
X114952857Y-55179142D01*
X115081428Y-55179142D01*
X115167142Y-55222000D01*
X115210000Y-55264857D01*
X114010000Y-55179142D02*
X114010000Y-55779142D01*
X114395714Y-55179142D02*
X114395714Y-55650571D01*
X114352857Y-55736285D01*
X114267142Y-55779142D01*
X114138571Y-55779142D01*
X114052857Y-55736285D01*
X114010000Y-55693428D01*
X113581428Y-55779142D02*
X113581428Y-54879142D01*
X113581428Y-55222000D02*
X113495714Y-55179142D01*
X113324285Y-55179142D01*
X113238571Y-55222000D01*
X113195714Y-55264857D01*
X113152857Y-55350571D01*
X113152857Y-55607714D01*
X113195714Y-55693428D01*
X113238571Y-55736285D01*
X113324285Y-55779142D01*
X113495714Y-55779142D01*
X113581428Y-55736285D01*
X112767142Y-55693428D02*
X112724285Y-55736285D01*
X112767142Y-55779142D01*
X112810000Y-55736285D01*
X112767142Y-55693428D01*
X112767142Y-55779142D01*
X111952857Y-55736285D02*
X112038571Y-55779142D01*
X112210000Y-55779142D01*
X112295714Y-55736285D01*
X112338571Y-55693428D01*
X112381428Y-55607714D01*
X112381428Y-55350571D01*
X112338571Y-55264857D01*
X112295714Y-55222000D01*
X112210000Y-55179142D01*
X112038571Y-55179142D01*
X111952857Y-55222000D01*
X111438571Y-55779142D02*
X111524285Y-55736285D01*
X111567142Y-55693428D01*
X111610000Y-55607714D01*
X111610000Y-55350571D01*
X111567142Y-55264857D01*
X111524285Y-55222000D01*
X111438571Y-55179142D01*
X111310000Y-55179142D01*
X111224285Y-55222000D01*
X111181428Y-55264857D01*
X111138571Y-55350571D01*
X111138571Y-55607714D01*
X111181428Y-55693428D01*
X111224285Y-55736285D01*
X111310000Y-55779142D01*
X111438571Y-55779142D01*
X110752857Y-55779142D02*
X110752857Y-55179142D01*
X110752857Y-55264857D02*
X110710000Y-55222000D01*
X110624285Y-55179142D01*
X110495714Y-55179142D01*
X110410000Y-55222000D01*
X110367142Y-55307714D01*
X110367142Y-55779142D01*
X110367142Y-55307714D02*
X110324285Y-55222000D01*
X110238571Y-55179142D01*
X110110000Y-55179142D01*
X110024285Y-55222000D01*
X109981428Y-55307714D01*
X109981428Y-55779142D01*
X108910000Y-54836285D02*
X109681428Y-55993428D01*
X108610000Y-55779142D02*
X108610000Y-55179142D01*
X108610000Y-55264857D02*
X108567142Y-55222000D01*
X108481428Y-55179142D01*
X108352857Y-55179142D01*
X108267142Y-55222000D01*
X108224285Y-55307714D01*
X108224285Y-55779142D01*
X108224285Y-55307714D02*
X108181428Y-55222000D01*
X108095714Y-55179142D01*
X107967142Y-55179142D01*
X107881428Y-55222000D01*
X107838571Y-55307714D01*
X107838571Y-55779142D01*
X107024285Y-55779142D02*
X107024285Y-55307714D01*
X107067142Y-55222000D01*
X107152857Y-55179142D01*
X107324285Y-55179142D01*
X107410000Y-55222000D01*
X107024285Y-55736285D02*
X107110000Y-55779142D01*
X107324285Y-55779142D01*
X107410000Y-55736285D01*
X107452857Y-55650571D01*
X107452857Y-55564857D01*
X107410000Y-55479142D01*
X107324285Y-55436285D01*
X107110000Y-55436285D01*
X107024285Y-55393428D01*
X106724285Y-55179142D02*
X106381428Y-55179142D01*
X106595714Y-54879142D02*
X106595714Y-55650571D01*
X106552857Y-55736285D01*
X106467142Y-55779142D01*
X106381428Y-55779142D01*
X106210000Y-55179142D02*
X105867142Y-55179142D01*
X106081428Y-54879142D02*
X106081428Y-55650571D01*
X106038571Y-55736285D01*
X105952857Y-55779142D01*
X105867142Y-55779142D01*
X105095714Y-55779142D02*
X105610000Y-55779142D01*
X105352857Y-55779142D02*
X105352857Y-54879142D01*
X105438571Y-55007714D01*
X105524285Y-55093428D01*
X105610000Y-55136285D01*
X104667142Y-55779142D02*
X104495714Y-55779142D01*
X104410000Y-55736285D01*
X104367142Y-55693428D01*
X104281428Y-55564857D01*
X104238571Y-55393428D01*
X104238571Y-55050571D01*
X104281428Y-54964857D01*
X104324285Y-54922000D01*
X104410000Y-54879142D01*
X104581428Y-54879142D01*
X104667142Y-54922000D01*
X104710000Y-54964857D01*
X104752857Y-55050571D01*
X104752857Y-55264857D01*
X104710000Y-55350571D01*
X104667142Y-55393428D01*
X104581428Y-55436285D01*
X104410000Y-55436285D01*
X104324285Y-55393428D01*
X104281428Y-55350571D01*
X104238571Y-55264857D01*
X103810000Y-55779142D02*
X103638571Y-55779142D01*
X103552857Y-55736285D01*
X103510000Y-55693428D01*
X103424285Y-55564857D01*
X103381428Y-55393428D01*
X103381428Y-55050571D01*
X103424285Y-54964857D01*
X103467142Y-54922000D01*
X103552857Y-54879142D01*
X103724285Y-54879142D01*
X103810000Y-54922000D01*
X103852857Y-54964857D01*
X103895714Y-55050571D01*
X103895714Y-55264857D01*
X103852857Y-55350571D01*
X103810000Y-55393428D01*
X103724285Y-55436285D01*
X103552857Y-55436285D01*
X103467142Y-55393428D01*
X103424285Y-55350571D01*
X103381428Y-55264857D01*
X103081428Y-54879142D02*
X102524285Y-54879142D01*
X102824285Y-55222000D01*
X102695714Y-55222000D01*
X102610000Y-55264857D01*
X102567142Y-55307714D01*
X102524285Y-55393428D01*
X102524285Y-55607714D01*
X102567142Y-55693428D01*
X102610000Y-55736285D01*
X102695714Y-55779142D01*
X102952857Y-55779142D01*
X103038571Y-55736285D01*
X103081428Y-55693428D01*
X102095714Y-55779142D02*
X101924285Y-55779142D01*
X101838571Y-55736285D01*
X101795714Y-55693428D01*
X101710000Y-55564857D01*
X101667142Y-55393428D01*
X101667142Y-55050571D01*
X101710000Y-54964857D01*
X101752857Y-54922000D01*
X101838571Y-54879142D01*
X102010000Y-54879142D01*
X102095714Y-54922000D01*
X102138571Y-54964857D01*
X102181428Y-55050571D01*
X102181428Y-55264857D01*
X102138571Y-55350571D01*
X102095714Y-55393428D01*
X102010000Y-55436285D01*
X101838571Y-55436285D01*
X101752857Y-55393428D01*
X101710000Y-55350571D01*
X101667142Y-55264857D01*
X100895714Y-55179142D02*
X100895714Y-55779142D01*
X101110000Y-54836285D02*
X101324285Y-55479142D01*
X100767142Y-55479142D01*
D11*
X130978285Y-51033071D02*
X130978285Y-49533071D01*
X130264000Y-50033071D02*
X130264000Y-51033071D01*
X130264000Y-50175928D02*
X130192571Y-50104500D01*
X130049714Y-50033071D01*
X129835428Y-50033071D01*
X129692571Y-50104500D01*
X129621142Y-50247357D01*
X129621142Y-51033071D01*
X129121142Y-50033071D02*
X128549714Y-50033071D01*
X128906857Y-51033071D02*
X128906857Y-49747357D01*
X128835428Y-49604500D01*
X128692571Y-49533071D01*
X128549714Y-49533071D01*
X128049714Y-51033071D02*
X128049714Y-50033071D01*
X128049714Y-50318785D02*
X127978285Y-50175928D01*
X127906857Y-50104500D01*
X127764000Y-50033071D01*
X127621142Y-50033071D01*
X126478285Y-51033071D02*
X126478285Y-50247357D01*
X126549714Y-50104500D01*
X126692571Y-50033071D01*
X126978285Y-50033071D01*
X127121142Y-50104500D01*
X126478285Y-50961642D02*
X126621142Y-51033071D01*
X126978285Y-51033071D01*
X127121142Y-50961642D01*
X127192571Y-50818785D01*
X127192571Y-50675928D01*
X127121142Y-50533071D01*
X126978285Y-50461642D01*
X126621142Y-50461642D01*
X126478285Y-50390214D01*
X124906857Y-51033071D02*
X125406857Y-50318785D01*
X125764000Y-51033071D02*
X125764000Y-49533071D01*
X125192571Y-49533071D01*
X125049714Y-49604500D01*
X124978285Y-49675928D01*
X124906857Y-49818785D01*
X124906857Y-50033071D01*
X124978285Y-50175928D01*
X125049714Y-50247357D01*
X125192571Y-50318785D01*
X125764000Y-50318785D01*
X123692571Y-50961642D02*
X123835428Y-51033071D01*
X124121142Y-51033071D01*
X124264000Y-50961642D01*
X124335428Y-50818785D01*
X124335428Y-50247357D01*
X124264000Y-50104500D01*
X124121142Y-50033071D01*
X123835428Y-50033071D01*
X123692571Y-50104500D01*
X123621142Y-50247357D01*
X123621142Y-50390214D01*
X124335428Y-50533071D01*
X122335428Y-51033071D02*
X122335428Y-49533071D01*
X122335428Y-50961642D02*
X122478285Y-51033071D01*
X122764000Y-51033071D01*
X122906857Y-50961642D01*
X122978285Y-50890214D01*
X123049714Y-50747357D01*
X123049714Y-50318785D01*
X122978285Y-50175928D01*
X122906857Y-50104500D01*
X122764000Y-50033071D01*
X122478285Y-50033071D01*
X122335428Y-50104500D01*
X120549714Y-50961642D02*
X120335428Y-51033071D01*
X119978285Y-51033071D01*
X119835428Y-50961642D01*
X119764000Y-50890214D01*
X119692571Y-50747357D01*
X119692571Y-50604500D01*
X119764000Y-50461642D01*
X119835428Y-50390214D01*
X119978285Y-50318785D01*
X120264000Y-50247357D01*
X120406857Y-50175928D01*
X120478285Y-50104500D01*
X120549714Y-49961642D01*
X120549714Y-49818785D01*
X120478285Y-49675928D01*
X120406857Y-49604500D01*
X120264000Y-49533071D01*
X119906857Y-49533071D01*
X119692571Y-49604500D01*
X119264000Y-50033071D02*
X118692571Y-50033071D01*
X119049714Y-49533071D02*
X119049714Y-50818785D01*
X118978285Y-50961642D01*
X118835428Y-51033071D01*
X118692571Y-51033071D01*
X117621142Y-50961642D02*
X117764000Y-51033071D01*
X118049714Y-51033071D01*
X118192571Y-50961642D01*
X118264000Y-50818785D01*
X118264000Y-50247357D01*
X118192571Y-50104500D01*
X118049714Y-50033071D01*
X117764000Y-50033071D01*
X117621142Y-50104500D01*
X117549714Y-50247357D01*
X117549714Y-50390214D01*
X118264000Y-50533071D01*
X116906857Y-50033071D02*
X116906857Y-51533071D01*
X116906857Y-50104500D02*
X116764000Y-50033071D01*
X116478285Y-50033071D01*
X116335428Y-50104500D01*
X116264000Y-50175928D01*
X116192571Y-50318785D01*
X116192571Y-50747357D01*
X116264000Y-50890214D01*
X116335428Y-50961642D01*
X116478285Y-51033071D01*
X116764000Y-51033071D01*
X116906857Y-50961642D01*
X115549714Y-50033071D02*
X115549714Y-51533071D01*
X115549714Y-50104500D02*
X115406857Y-50033071D01*
X115121142Y-50033071D01*
X114978285Y-50104500D01*
X114906857Y-50175928D01*
X114835428Y-50318785D01*
X114835428Y-50747357D01*
X114906857Y-50890214D01*
X114978285Y-50961642D01*
X115121142Y-51033071D01*
X115406857Y-51033071D01*
X115549714Y-50961642D01*
X113621142Y-50961642D02*
X113764000Y-51033071D01*
X114049714Y-51033071D01*
X114192571Y-50961642D01*
X114264000Y-50818785D01*
X114264000Y-50247357D01*
X114192571Y-50104500D01*
X114049714Y-50033071D01*
X113764000Y-50033071D01*
X113621142Y-50104500D01*
X113549714Y-50247357D01*
X113549714Y-50390214D01*
X114264000Y-50533071D01*
X112906857Y-51033071D02*
X112906857Y-50033071D01*
X112906857Y-50318785D02*
X112835428Y-50175928D01*
X112764000Y-50104500D01*
X112621142Y-50033071D01*
X112478285Y-50033071D01*
X110835428Y-51033071D02*
X110835428Y-49533071D01*
X110335428Y-50604500D01*
X109835428Y-49533071D01*
X109835428Y-51033071D01*
X108906857Y-51033071D02*
X109049714Y-50961642D01*
X109121142Y-50890214D01*
X109192571Y-50747357D01*
X109192571Y-50318785D01*
X109121142Y-50175928D01*
X109049714Y-50104500D01*
X108906857Y-50033071D01*
X108692571Y-50033071D01*
X108549714Y-50104500D01*
X108478285Y-50175928D01*
X108406857Y-50318785D01*
X108406857Y-50747357D01*
X108478285Y-50890214D01*
X108549714Y-50961642D01*
X108692571Y-51033071D01*
X108906857Y-51033071D01*
X107978285Y-50033071D02*
X107406857Y-50033071D01*
X107764000Y-49533071D02*
X107764000Y-50818785D01*
X107692571Y-50961642D01*
X107549714Y-51033071D01*
X107406857Y-51033071D01*
X106692571Y-51033071D02*
X106835428Y-50961642D01*
X106906857Y-50890214D01*
X106978285Y-50747357D01*
X106978285Y-50318785D01*
X106906857Y-50175928D01*
X106835428Y-50104500D01*
X106692571Y-50033071D01*
X106478285Y-50033071D01*
X106335428Y-50104500D01*
X106264000Y-50175928D01*
X106192571Y-50318785D01*
X106192571Y-50747357D01*
X106264000Y-50890214D01*
X106335428Y-50961642D01*
X106478285Y-51033071D01*
X106692571Y-51033071D01*
X105549714Y-51033071D02*
X105549714Y-50033071D01*
X105549714Y-50318785D02*
X105478285Y-50175928D01*
X105406857Y-50104500D01*
X105264000Y-50033071D01*
X105121142Y-50033071D01*
X102621142Y-50890214D02*
X102692571Y-50961642D01*
X102906857Y-51033071D01*
X103049714Y-51033071D01*
X103264000Y-50961642D01*
X103406857Y-50818785D01*
X103478285Y-50675928D01*
X103549714Y-50390214D01*
X103549714Y-50175928D01*
X103478285Y-49890214D01*
X103406857Y-49747357D01*
X103264000Y-49604500D01*
X103049714Y-49533071D01*
X102906857Y-49533071D01*
X102692571Y-49604500D01*
X102621142Y-49675928D01*
X101764000Y-51033071D02*
X101906857Y-50961642D01*
X101978285Y-50890214D01*
X102049714Y-50747357D01*
X102049714Y-50318785D01*
X101978285Y-50175928D01*
X101906857Y-50104500D01*
X101764000Y-50033071D01*
X101549714Y-50033071D01*
X101406857Y-50104500D01*
X101335428Y-50175928D01*
X101264000Y-50318785D01*
X101264000Y-50747357D01*
X101335428Y-50890214D01*
X101406857Y-50961642D01*
X101549714Y-51033071D01*
X101764000Y-51033071D01*
X100621142Y-50033071D02*
X100621142Y-51033071D01*
X100621142Y-50175928D02*
X100549714Y-50104500D01*
X100406857Y-50033071D01*
X100192571Y-50033071D01*
X100049714Y-50104500D01*
X99978285Y-50247357D01*
X99978285Y-51033071D01*
X99478285Y-50033071D02*
X98906857Y-50033071D01*
X99264000Y-49533071D02*
X99264000Y-50818785D01*
X99192571Y-50961642D01*
X99049714Y-51033071D01*
X98906857Y-51033071D01*
X98406857Y-51033071D02*
X98406857Y-50033071D01*
X98406857Y-50318785D02*
X98335428Y-50175928D01*
X98264000Y-50104500D01*
X98121142Y-50033071D01*
X97978285Y-50033071D01*
X97264000Y-51033071D02*
X97406857Y-50961642D01*
X97478285Y-50890214D01*
X97549714Y-50747357D01*
X97549714Y-50318785D01*
X97478285Y-50175928D01*
X97406857Y-50104500D01*
X97264000Y-50033071D01*
X97049714Y-50033071D01*
X96906857Y-50104500D01*
X96835428Y-50175928D01*
X96764000Y-50318785D01*
X96764000Y-50747357D01*
X96835428Y-50890214D01*
X96906857Y-50961642D01*
X97049714Y-51033071D01*
X97264000Y-51033071D01*
X95906857Y-51033071D02*
X96049714Y-50961642D01*
X96121142Y-50818785D01*
X96121142Y-49533071D01*
X95121142Y-51033071D02*
X95264000Y-50961642D01*
X95335428Y-50818785D01*
X95335428Y-49533071D01*
X93978285Y-50961642D02*
X94121142Y-51033071D01*
X94406857Y-51033071D01*
X94549714Y-50961642D01*
X94621142Y-50818785D01*
X94621142Y-50247357D01*
X94549714Y-50104500D01*
X94406857Y-50033071D01*
X94121142Y-50033071D01*
X93978285Y-50104500D01*
X93906857Y-50247357D01*
X93906857Y-50390214D01*
X94621142Y-50533071D01*
X93264000Y-51033071D02*
X93264000Y-50033071D01*
X93264000Y-50318785D02*
X93192571Y-50175928D01*
X93121142Y-50104500D01*
X92978285Y-50033071D01*
X92835428Y-50033071D01*
X122121142Y-52662357D02*
X121906857Y-52733785D01*
X121835428Y-52805214D01*
X121764000Y-52948071D01*
X121764000Y-53162357D01*
X121835428Y-53305214D01*
X121906857Y-53376642D01*
X122049714Y-53448071D01*
X122621142Y-53448071D01*
X122621142Y-51948071D01*
X122121142Y-51948071D01*
X121978285Y-52019500D01*
X121906857Y-52090928D01*
X121835428Y-52233785D01*
X121835428Y-52376642D01*
X121906857Y-52519500D01*
X121978285Y-52590928D01*
X122121142Y-52662357D01*
X122621142Y-52662357D01*
X121264000Y-52448071D02*
X120906857Y-53448071D01*
X120549714Y-52448071D02*
X120906857Y-53448071D01*
X121049714Y-53805214D01*
X121121142Y-53876642D01*
X121264000Y-53948071D01*
X118835428Y-53448071D02*
X118835428Y-51948071D01*
X118335428Y-53019500D01*
X117835428Y-51948071D01*
X117835428Y-53448071D01*
X117121142Y-53305214D02*
X117049714Y-53376642D01*
X117121142Y-53448071D01*
X117192571Y-53376642D01*
X117121142Y-53305214D01*
X117121142Y-53448071D01*
X116478285Y-53019500D02*
X115764000Y-53019500D01*
X116621142Y-53448071D02*
X116121142Y-51948071D01*
X115621142Y-53448071D01*
X115121142Y-52448071D02*
X115121142Y-53448071D01*
X115121142Y-52590928D02*
X115049714Y-52519500D01*
X114906857Y-52448071D01*
X114692571Y-52448071D01*
X114549714Y-52519500D01*
X114478285Y-52662357D01*
X114478285Y-53448071D01*
X113121142Y-52448071D02*
X113121142Y-53662357D01*
X113192571Y-53805214D01*
X113264000Y-53876642D01*
X113406857Y-53948071D01*
X113621142Y-53948071D01*
X113764000Y-53876642D01*
X113121142Y-53376642D02*
X113264000Y-53448071D01*
X113549714Y-53448071D01*
X113692571Y-53376642D01*
X113764000Y-53305214D01*
X113835428Y-53162357D01*
X113835428Y-52733785D01*
X113764000Y-52590928D01*
X113692571Y-52519500D01*
X113549714Y-52448071D01*
X113264000Y-52448071D01*
X113121142Y-52519500D01*
X111835428Y-53376642D02*
X111978285Y-53448071D01*
X112264000Y-53448071D01*
X112406857Y-53376642D01*
X112478285Y-53233785D01*
X112478285Y-52662357D01*
X112406857Y-52519500D01*
X112264000Y-52448071D01*
X111978285Y-52448071D01*
X111835428Y-52519500D01*
X111764000Y-52662357D01*
X111764000Y-52805214D01*
X112478285Y-52948071D01*
X110906857Y-53448071D02*
X111049714Y-53376642D01*
X111121142Y-53233785D01*
X111121142Y-51948071D01*
X110335428Y-53448071D02*
X110335428Y-52448071D01*
X110335428Y-51948071D02*
X110406857Y-52019500D01*
X110335428Y-52090928D01*
X110264000Y-52019500D01*
X110335428Y-51948071D01*
X110335428Y-52090928D01*
X109621142Y-52448071D02*
X109621142Y-53448071D01*
X109621142Y-52590928D02*
X109549714Y-52519500D01*
X109406857Y-52448071D01*
X109192571Y-52448071D01*
X109049714Y-52519500D01*
X108978285Y-52662357D01*
X108978285Y-53448071D01*
X108264000Y-53448071D02*
X108264000Y-52448071D01*
X108264000Y-51948071D02*
X108335428Y-52019500D01*
X108264000Y-52090928D01*
X108192571Y-52019500D01*
X108264000Y-51948071D01*
X108264000Y-52090928D01*
X106478285Y-52090928D02*
X106406857Y-52019500D01*
X106264000Y-51948071D01*
X105906857Y-51948071D01*
X105764000Y-52019500D01*
X105692571Y-52090928D01*
X105621142Y-52233785D01*
X105621142Y-52376642D01*
X105692571Y-52590928D01*
X106549714Y-53448071D01*
X105621142Y-53448071D01*
X104692571Y-51948071D02*
X104549714Y-51948071D01*
X104406857Y-52019500D01*
X104335428Y-52090928D01*
X104264000Y-52233785D01*
X104192571Y-52519500D01*
X104192571Y-52876642D01*
X104264000Y-53162357D01*
X104335428Y-53305214D01*
X104406857Y-53376642D01*
X104549714Y-53448071D01*
X104692571Y-53448071D01*
X104835428Y-53376642D01*
X104906857Y-53305214D01*
X104978285Y-53162357D01*
X105049714Y-52876642D01*
X105049714Y-52519500D01*
X104978285Y-52233785D01*
X104906857Y-52090928D01*
X104835428Y-52019500D01*
X104692571Y-51948071D01*
X103621142Y-52090928D02*
X103549714Y-52019500D01*
X103406857Y-51948071D01*
X103049714Y-51948071D01*
X102906857Y-52019500D01*
X102835428Y-52090928D01*
X102764000Y-52233785D01*
X102764000Y-52376642D01*
X102835428Y-52590928D01*
X103692571Y-53448071D01*
X102764000Y-53448071D01*
X101478285Y-52448071D02*
X101478285Y-53448071D01*
X101835428Y-51876642D02*
X102192571Y-52948071D01*
X101264000Y-52948071D01*
M02*
