%TF.GenerationSoftware,KiCad,Pcbnew,6.0.11-2627ca5db0~126~ubuntu20.04.1*%
%TF.CreationDate,2024-06-24T23:06:26+02:00*%
%TF.ProjectId,IRstepper,49527374-6570-4706-9572-2e6b69636164,rev?*%
%TF.SameCoordinates,Original*%
%TF.FileFunction,Drillmap*%
%TF.FilePolarity,Positive*%
%FSLAX45Y45*%
G04 Gerber Fmt 4.5, Leading zero omitted, Abs format (unit mm)*
G04 Created by KiCad (PCBNEW 6.0.11-2627ca5db0~126~ubuntu20.04.1) date 2024-06-24 23:06:26*
%MOMM*%
%LPD*%
G01*
G04 APERTURE LIST*
%ADD10C,0.100000*%
%ADD11C,0.200000*%
%ADD12C,0.080000*%
%ADD13C,0.080010*%
%ADD14C,0.090000*%
%ADD15C,0.130000*%
%ADD16C,0.370000*%
G04 APERTURE END LIST*
D10*
X9000000Y-1600200D02*
X13500000Y-1600000D01*
X9000000Y-11000000D02*
X13500000Y-11000000D01*
X13500000Y-11000000D02*
X13500000Y-1600000D01*
X9000000Y-11000000D02*
X9000000Y-1600200D01*
D11*
D12*
X10297800Y-7834000D02*
X10377800Y-7914000D01*
X10377800Y-7834000D02*
X10297800Y-7914000D01*
X10297800Y-8596000D02*
X10377800Y-8676000D01*
X10377800Y-8596000D02*
X10297800Y-8676000D01*
X11873600Y-7402200D02*
X11953600Y-7482200D01*
X11953600Y-7402200D02*
X11873600Y-7482200D01*
X11873600Y-7656200D02*
X11953600Y-7736200D01*
X11953600Y-7656200D02*
X11873600Y-7736200D01*
X11873600Y-7910200D02*
X11953600Y-7990200D01*
X11953600Y-7910200D02*
X11873600Y-7990200D01*
X11873600Y-8164200D02*
X11953600Y-8244200D01*
X11953600Y-8164200D02*
X11873600Y-8244200D01*
X11873600Y-8418200D02*
X11953600Y-8498200D01*
X11953600Y-8418200D02*
X11873600Y-8498200D01*
X11873600Y-8672200D02*
X11953600Y-8752200D01*
X11953600Y-8672200D02*
X11873600Y-8752200D01*
X11873600Y-8926200D02*
X11953600Y-9006200D01*
X11953600Y-8926200D02*
X11873600Y-9006200D01*
X11873600Y-9180200D02*
X11953600Y-9260200D01*
X11953600Y-9180200D02*
X11873600Y-9260200D01*
X11891070Y-9789800D02*
X11971070Y-9869800D01*
X11971070Y-9789800D02*
X11891070Y-9869800D01*
X12241070Y-9789800D02*
X12321070Y-9869800D01*
X12321070Y-9789800D02*
X12241070Y-9869800D01*
X13143600Y-7402200D02*
X13223600Y-7482200D01*
X13223600Y-7402200D02*
X13143600Y-7482200D01*
X13143600Y-7656200D02*
X13223600Y-7736200D01*
X13223600Y-7656200D02*
X13143600Y-7736200D01*
X13143600Y-7910200D02*
X13223600Y-7990200D01*
X13223600Y-7910200D02*
X13143600Y-7990200D01*
X13143600Y-8164200D02*
X13223600Y-8244200D01*
X13223600Y-8164200D02*
X13143600Y-8244200D01*
X13143600Y-8418200D02*
X13223600Y-8498200D01*
X13223600Y-8418200D02*
X13143600Y-8498200D01*
X13143600Y-8672200D02*
X13223600Y-8752200D01*
X13223600Y-8672200D02*
X13143600Y-8752200D01*
X13143600Y-8926200D02*
X13223600Y-9006200D01*
X13223600Y-8926200D02*
X13143600Y-9006200D01*
X13143600Y-9180200D02*
X13223600Y-9260200D01*
X13223600Y-9180200D02*
X13143600Y-9260200D01*
D13*
X9590405Y-7061200D02*
G75*
G03*
X9590405Y-7061200I-40005J0D01*
G01*
X9590405Y-7315200D02*
G75*
G03*
X9590405Y-7315200I-40005J0D01*
G01*
X9590405Y-7569200D02*
G75*
G03*
X9590405Y-7569200I-40005J0D01*
G01*
X9590405Y-7823200D02*
G75*
G03*
X9590405Y-7823200I-40005J0D01*
G01*
X9590405Y-8077200D02*
G75*
G03*
X9590405Y-8077200I-40005J0D01*
G01*
X9590405Y-8331200D02*
G75*
G03*
X9590405Y-8331200I-40005J0D01*
G01*
X9590405Y-8585200D02*
G75*
G03*
X9590405Y-8585200I-40005J0D01*
G01*
X9590405Y-8839200D02*
G75*
G03*
X9590405Y-8839200I-40005J0D01*
G01*
X9590405Y-9093200D02*
G75*
G03*
X9590405Y-9093200I-40005J0D01*
G01*
X9590405Y-9347200D02*
G75*
G03*
X9590405Y-9347200I-40005J0D01*
G01*
X9590405Y-9601200D02*
G75*
G03*
X9590405Y-9601200I-40005J0D01*
G01*
X9590405Y-9855200D02*
G75*
G03*
X9590405Y-9855200I-40005J0D01*
G01*
X9844405Y-7061200D02*
G75*
G03*
X9844405Y-7061200I-40005J0D01*
G01*
X9844405Y-7696200D02*
G75*
G03*
X9844405Y-7696200I-40005J0D01*
G01*
X9844405Y-7950200D02*
G75*
G03*
X9844405Y-7950200I-40005J0D01*
G01*
X9844405Y-8712200D02*
G75*
G03*
X9844405Y-8712200I-40005J0D01*
G01*
X9844405Y-8966200D02*
G75*
G03*
X9844405Y-8966200I-40005J0D01*
G01*
X10098405Y-7061200D02*
G75*
G03*
X10098405Y-7061200I-40005J0D01*
G01*
X10352405Y-7061200D02*
G75*
G03*
X10352405Y-7061200I-40005J0D01*
G01*
X11114405Y-7061200D02*
G75*
G03*
X11114405Y-7061200I-40005J0D01*
G01*
X11114405Y-7315200D02*
G75*
G03*
X11114405Y-7315200I-40005J0D01*
G01*
X11114405Y-7569200D02*
G75*
G03*
X11114405Y-7569200I-40005J0D01*
G01*
X11114405Y-7823200D02*
G75*
G03*
X11114405Y-7823200I-40005J0D01*
G01*
X11114405Y-8077200D02*
G75*
G03*
X11114405Y-8077200I-40005J0D01*
G01*
X11114405Y-8331200D02*
G75*
G03*
X11114405Y-8331200I-40005J0D01*
G01*
X11114405Y-8585200D02*
G75*
G03*
X11114405Y-8585200I-40005J0D01*
G01*
X11114405Y-8839200D02*
G75*
G03*
X11114405Y-8839200I-40005J0D01*
G01*
X11114405Y-9093200D02*
G75*
G03*
X11114405Y-9093200I-40005J0D01*
G01*
X11114405Y-9347200D02*
G75*
G03*
X11114405Y-9347200I-40005J0D01*
G01*
X11114405Y-9601200D02*
G75*
G03*
X11114405Y-9601200I-40005J0D01*
G01*
X11114405Y-9855200D02*
G75*
G03*
X11114405Y-9855200I-40005J0D01*
G01*
D14*
X10540000Y-10699200D02*
X10540000Y-10789200D01*
X10495000Y-10744200D02*
X10585000Y-10744200D01*
X10794000Y-10699200D02*
X10794000Y-10789200D01*
X10749000Y-10744200D02*
X10839000Y-10744200D01*
X10871200Y-5873200D02*
X10871200Y-5963200D01*
X10826200Y-5918200D02*
X10916200Y-5918200D01*
X10871200Y-6635200D02*
X10871200Y-6725200D01*
X10826200Y-6680200D02*
X10916200Y-6680200D01*
X12039600Y-5873200D02*
X12039600Y-5963200D01*
X11994600Y-5918200D02*
X12084600Y-5918200D01*
X12039600Y-6635200D02*
X12039600Y-6725200D01*
X11994600Y-6680200D02*
X12084600Y-6680200D01*
D10*
X9230656Y-10830356D02*
X9230656Y-10759644D01*
X9159944Y-10759644D01*
X9159944Y-10830356D01*
X9230656Y-10830356D01*
X9255556Y-7655356D02*
X9255556Y-7584644D01*
X9184844Y-7584644D01*
X9184844Y-7655356D01*
X9255556Y-7655356D01*
X9255556Y-7909356D02*
X9255556Y-7838644D01*
X9184844Y-7838644D01*
X9184844Y-7909356D01*
X9255556Y-7909356D01*
X9255556Y-8163356D02*
X9255556Y-8092644D01*
X9184844Y-8092644D01*
X9184844Y-8163356D01*
X9255556Y-8163356D01*
X9255556Y-8417356D02*
X9255556Y-8346644D01*
X9184844Y-8346644D01*
X9184844Y-8417356D01*
X9255556Y-8417356D01*
X9255556Y-8671356D02*
X9255556Y-8600644D01*
X9184844Y-8600644D01*
X9184844Y-8671356D01*
X9255556Y-8671356D01*
X9255556Y-8925356D02*
X9255556Y-8854644D01*
X9184844Y-8854644D01*
X9184844Y-8925356D01*
X9255556Y-8925356D01*
X9255556Y-9307356D02*
X9255556Y-9236644D01*
X9184844Y-9236644D01*
X9184844Y-9307356D01*
X9255556Y-9307356D01*
X9255556Y-9561356D02*
X9255556Y-9490644D01*
X9184844Y-9490644D01*
X9184844Y-9561356D01*
X9255556Y-9561356D01*
X9255556Y-9815356D02*
X9255556Y-9744644D01*
X9184844Y-9744644D01*
X9184844Y-9815356D01*
X9255556Y-9815356D01*
X9255556Y-10069356D02*
X9255556Y-9998644D01*
X9184844Y-9998644D01*
X9184844Y-10069356D01*
X9255556Y-10069356D01*
X9484656Y-10830356D02*
X9484656Y-10759644D01*
X9413944Y-10759644D01*
X9413944Y-10830356D01*
X9484656Y-10830356D01*
X9738656Y-10830356D02*
X9738656Y-10759644D01*
X9667944Y-10759644D01*
X9667944Y-10830356D01*
X9738656Y-10830356D01*
X9839756Y-6283756D02*
X9839756Y-6213044D01*
X9769044Y-6213044D01*
X9769044Y-6283756D01*
X9839756Y-6283756D01*
D11*
X9754400Y-6148400D02*
X9754400Y-6348400D01*
X9854400Y-6148400D02*
X9854400Y-6348400D01*
X9754400Y-6348400D02*
G75*
G03*
X9854400Y-6348400I50000J0D01*
G01*
X9854400Y-6148400D02*
G75*
G03*
X9754400Y-6148400I-50000J0D01*
G01*
D10*
X9992656Y-10830356D02*
X9992656Y-10759644D01*
X9921944Y-10759644D01*
X9921944Y-10830356D01*
X9992656Y-10830356D01*
X10139756Y-6753756D02*
X10139756Y-6683044D01*
X10069044Y-6683044D01*
X10069044Y-6753756D01*
X10139756Y-6753756D01*
D11*
X10004400Y-6768400D02*
X10204400Y-6768400D01*
X10004400Y-6668400D02*
X10204400Y-6668400D01*
X10204400Y-6768400D02*
G75*
G03*
X10204400Y-6668400I0J50000D01*
G01*
X10004400Y-6668400D02*
G75*
G03*
X10004400Y-6768400I0J-50000D01*
G01*
D10*
X10246656Y-10830356D02*
X10246656Y-10759644D01*
X10175944Y-10759644D01*
X10175944Y-10830356D01*
X10246656Y-10830356D01*
X10439756Y-6283756D02*
X10439756Y-6213044D01*
X10369044Y-6213044D01*
X10369044Y-6283756D01*
X10439756Y-6283756D01*
D11*
X10354400Y-6148400D02*
X10354400Y-6348400D01*
X10454400Y-6148400D02*
X10454400Y-6348400D01*
X10354400Y-6348400D02*
G75*
G03*
X10454400Y-6348400I50000J0D01*
G01*
X10454400Y-6148400D02*
G75*
G03*
X10354400Y-6148400I-50000J0D01*
G01*
D10*
X11212856Y-10779556D02*
X11212856Y-10708844D01*
X11142144Y-10708844D01*
X11142144Y-10779556D01*
X11212856Y-10779556D01*
X11363256Y-6537756D02*
X11363256Y-6467044D01*
X11292544Y-6467044D01*
X11292544Y-6537756D01*
X11363256Y-6537756D01*
X11466856Y-10779556D02*
X11466856Y-10708844D01*
X11396144Y-10708844D01*
X11396144Y-10779556D01*
X11466856Y-10779556D01*
X11617256Y-6537756D02*
X11617256Y-6467044D01*
X11546544Y-6467044D01*
X11546544Y-6537756D01*
X11617256Y-6537756D01*
X11720856Y-10779556D02*
X11720856Y-10708844D01*
X11650144Y-10708844D01*
X11650144Y-10779556D01*
X11720856Y-10779556D01*
X12228356Y-7096556D02*
X12228356Y-7025844D01*
X12157644Y-7025844D01*
X12157644Y-7096556D01*
X12228356Y-7096556D01*
X12330456Y-7554256D02*
X12330456Y-7483544D01*
X12259744Y-7483544D01*
X12259744Y-7554256D01*
X12330456Y-7554256D01*
X12330456Y-7808256D02*
X12330456Y-7737544D01*
X12259744Y-7737544D01*
X12259744Y-7808256D01*
X12330456Y-7808256D01*
X12482356Y-7096556D02*
X12482356Y-7025844D01*
X12411644Y-7025844D01*
X12411644Y-7096556D01*
X12482356Y-7096556D01*
X12584456Y-7554256D02*
X12584456Y-7483544D01*
X12513744Y-7483544D01*
X12513744Y-7554256D01*
X12584456Y-7554256D01*
X12584456Y-7808256D02*
X12584456Y-7737544D01*
X12513744Y-7737544D01*
X12513744Y-7808256D01*
X12584456Y-7808256D01*
X12736356Y-7096556D02*
X12736356Y-7025844D01*
X12665644Y-7025844D01*
X12665644Y-7096556D01*
X12736356Y-7096556D01*
X12838456Y-7554256D02*
X12838456Y-7483544D01*
X12767744Y-7483544D01*
X12767744Y-7554256D01*
X12838456Y-7554256D01*
X12838456Y-7808256D02*
X12838456Y-7737544D01*
X12767744Y-7737544D01*
X12767744Y-7808256D01*
X12838456Y-7808256D01*
X12990356Y-7096556D02*
X12990356Y-7025844D01*
X12919644Y-7025844D01*
X12919644Y-7096556D01*
X12990356Y-7096556D01*
X13067056Y-10574856D02*
X13067056Y-10504144D01*
X12996344Y-10504144D01*
X12996344Y-10574856D01*
X13067056Y-10574856D01*
X13067056Y-10828856D02*
X13067056Y-10758144D01*
X12996344Y-10758144D01*
X12996344Y-10828856D01*
X13067056Y-10828856D01*
X13321056Y-10574856D02*
X13321056Y-10504144D01*
X13250344Y-10504144D01*
X13250344Y-10574856D01*
X13321056Y-10574856D01*
X13321056Y-10828856D02*
X13321056Y-10758144D01*
X13250344Y-10758144D01*
X13250344Y-10828856D01*
X13321056Y-10828856D01*
D15*
X12952000Y-6094800D02*
X13017000Y-6029800D01*
X12952000Y-5964800D01*
X12887000Y-6029800D01*
X12952000Y-6094800D01*
X12952000Y-6594800D02*
X13017000Y-6529800D01*
X12952000Y-6464800D01*
X12887000Y-6529800D01*
X12952000Y-6594800D01*
D16*
X9263800Y-1872400D02*
X9633800Y-2242400D01*
X9633800Y-1872400D02*
X9263800Y-2242400D01*
X9633800Y-2057400D02*
G75*
G03*
X9633800Y-2057400I-185000J0D01*
G01*
X10152800Y-9594000D02*
X10522800Y-9964000D01*
X10522800Y-9594000D02*
X10152800Y-9964000D01*
X10522800Y-9779000D02*
G75*
G03*
X10522800Y-9779000I-185000J0D01*
G01*
X12845200Y-9670200D02*
X13215200Y-10040200D01*
X13215200Y-9670200D02*
X12845200Y-10040200D01*
X13215200Y-9855200D02*
G75*
G03*
X13215200Y-9855200I-185000J0D01*
G01*
X12870600Y-1847000D02*
X13240600Y-2217000D01*
X13240600Y-1847000D02*
X12870600Y-2217000D01*
X13240600Y-2032000D02*
G75*
G03*
X13240600Y-2032000I-185000J0D01*
G01*
D11*
X9252619Y-11315476D02*
X9252619Y-11115476D01*
X9300238Y-11115476D01*
X9328810Y-11125000D01*
X9347857Y-11144048D01*
X9357381Y-11163095D01*
X9366905Y-11201190D01*
X9366905Y-11229762D01*
X9357381Y-11267857D01*
X9347857Y-11286905D01*
X9328810Y-11305952D01*
X9300238Y-11315476D01*
X9252619Y-11315476D01*
X9452619Y-11315476D02*
X9452619Y-11182143D01*
X9452619Y-11220238D02*
X9462143Y-11201190D01*
X9471667Y-11191667D01*
X9490714Y-11182143D01*
X9509762Y-11182143D01*
X9576429Y-11315476D02*
X9576429Y-11182143D01*
X9576429Y-11115476D02*
X9566905Y-11125000D01*
X9576429Y-11134524D01*
X9585952Y-11125000D01*
X9576429Y-11115476D01*
X9576429Y-11134524D01*
X9700238Y-11315476D02*
X9681190Y-11305952D01*
X9671667Y-11286905D01*
X9671667Y-11115476D01*
X9805000Y-11315476D02*
X9785952Y-11305952D01*
X9776429Y-11286905D01*
X9776429Y-11115476D01*
X10033571Y-11315476D02*
X10033571Y-11115476D01*
X10100238Y-11258333D01*
X10166905Y-11115476D01*
X10166905Y-11315476D01*
X10347857Y-11315476D02*
X10347857Y-11210714D01*
X10338333Y-11191667D01*
X10319286Y-11182143D01*
X10281190Y-11182143D01*
X10262143Y-11191667D01*
X10347857Y-11305952D02*
X10328810Y-11315476D01*
X10281190Y-11315476D01*
X10262143Y-11305952D01*
X10252619Y-11286905D01*
X10252619Y-11267857D01*
X10262143Y-11248809D01*
X10281190Y-11239286D01*
X10328810Y-11239286D01*
X10347857Y-11229762D01*
X10443095Y-11182143D02*
X10443095Y-11382143D01*
X10443095Y-11191667D02*
X10462143Y-11182143D01*
X10500238Y-11182143D01*
X10519286Y-11191667D01*
X10528810Y-11201190D01*
X10538333Y-11220238D01*
X10538333Y-11277381D01*
X10528810Y-11296428D01*
X10519286Y-11305952D01*
X10500238Y-11315476D01*
X10462143Y-11315476D01*
X10443095Y-11305952D01*
X10624048Y-11296428D02*
X10633571Y-11305952D01*
X10624048Y-11315476D01*
X10614524Y-11305952D01*
X10624048Y-11296428D01*
X10624048Y-11315476D01*
X10624048Y-11191667D02*
X10633571Y-11201190D01*
X10624048Y-11210714D01*
X10614524Y-11201190D01*
X10624048Y-11191667D01*
X10624048Y-11210714D01*
D12*
X8915000Y-11605000D02*
X8995000Y-11685000D01*
X8995000Y-11605000D02*
X8915000Y-11685000D01*
D11*
X9290714Y-11535476D02*
X9309762Y-11535476D01*
X9328810Y-11545000D01*
X9338333Y-11554524D01*
X9347857Y-11573571D01*
X9357381Y-11611667D01*
X9357381Y-11659286D01*
X9347857Y-11697381D01*
X9338333Y-11716428D01*
X9328810Y-11725952D01*
X9309762Y-11735476D01*
X9290714Y-11735476D01*
X9271667Y-11725952D01*
X9262143Y-11716428D01*
X9252619Y-11697381D01*
X9243095Y-11659286D01*
X9243095Y-11611667D01*
X9252619Y-11573571D01*
X9262143Y-11554524D01*
X9271667Y-11545000D01*
X9290714Y-11535476D01*
X9443095Y-11716428D02*
X9452619Y-11725952D01*
X9443095Y-11735476D01*
X9433571Y-11725952D01*
X9443095Y-11716428D01*
X9443095Y-11735476D01*
X9566905Y-11621190D02*
X9547857Y-11611667D01*
X9538333Y-11602143D01*
X9528810Y-11583095D01*
X9528810Y-11573571D01*
X9538333Y-11554524D01*
X9547857Y-11545000D01*
X9566905Y-11535476D01*
X9605000Y-11535476D01*
X9624048Y-11545000D01*
X9633571Y-11554524D01*
X9643095Y-11573571D01*
X9643095Y-11583095D01*
X9633571Y-11602143D01*
X9624048Y-11611667D01*
X9605000Y-11621190D01*
X9566905Y-11621190D01*
X9547857Y-11630714D01*
X9538333Y-11640238D01*
X9528810Y-11659286D01*
X9528810Y-11697381D01*
X9538333Y-11716428D01*
X9547857Y-11725952D01*
X9566905Y-11735476D01*
X9605000Y-11735476D01*
X9624048Y-11725952D01*
X9633571Y-11716428D01*
X9643095Y-11697381D01*
X9643095Y-11659286D01*
X9633571Y-11640238D01*
X9624048Y-11630714D01*
X9605000Y-11621190D01*
X9766905Y-11535476D02*
X9785952Y-11535476D01*
X9805000Y-11545000D01*
X9814524Y-11554524D01*
X9824048Y-11573571D01*
X9833571Y-11611667D01*
X9833571Y-11659286D01*
X9824048Y-11697381D01*
X9814524Y-11716428D01*
X9805000Y-11725952D01*
X9785952Y-11735476D01*
X9766905Y-11735476D01*
X9747857Y-11725952D01*
X9738333Y-11716428D01*
X9728810Y-11697381D01*
X9719286Y-11659286D01*
X9719286Y-11611667D01*
X9728810Y-11573571D01*
X9738333Y-11554524D01*
X9747857Y-11545000D01*
X9766905Y-11535476D01*
X9957381Y-11535476D02*
X9976429Y-11535476D01*
X9995476Y-11545000D01*
X10005000Y-11554524D01*
X10014524Y-11573571D01*
X10024048Y-11611667D01*
X10024048Y-11659286D01*
X10014524Y-11697381D01*
X10005000Y-11716428D01*
X9995476Y-11725952D01*
X9976429Y-11735476D01*
X9957381Y-11735476D01*
X9938333Y-11725952D01*
X9928810Y-11716428D01*
X9919286Y-11697381D01*
X9909762Y-11659286D01*
X9909762Y-11611667D01*
X9919286Y-11573571D01*
X9928810Y-11554524D01*
X9938333Y-11545000D01*
X9957381Y-11535476D01*
X10109762Y-11735476D02*
X10109762Y-11602143D01*
X10109762Y-11621190D02*
X10119286Y-11611667D01*
X10138333Y-11602143D01*
X10166905Y-11602143D01*
X10185952Y-11611667D01*
X10195476Y-11630714D01*
X10195476Y-11735476D01*
X10195476Y-11630714D02*
X10205000Y-11611667D01*
X10224048Y-11602143D01*
X10252619Y-11602143D01*
X10271667Y-11611667D01*
X10281190Y-11630714D01*
X10281190Y-11735476D01*
X10376429Y-11735476D02*
X10376429Y-11602143D01*
X10376429Y-11621190D02*
X10385952Y-11611667D01*
X10405000Y-11602143D01*
X10433571Y-11602143D01*
X10452619Y-11611667D01*
X10462143Y-11630714D01*
X10462143Y-11735476D01*
X10462143Y-11630714D02*
X10471667Y-11611667D01*
X10490714Y-11602143D01*
X10519286Y-11602143D01*
X10538333Y-11611667D01*
X10547857Y-11630714D01*
X10547857Y-11735476D01*
X10938333Y-11525952D02*
X10766905Y-11783095D01*
X11195476Y-11535476D02*
X11214524Y-11535476D01*
X11233571Y-11545000D01*
X11243095Y-11554524D01*
X11252619Y-11573571D01*
X11262143Y-11611667D01*
X11262143Y-11659286D01*
X11252619Y-11697381D01*
X11243095Y-11716428D01*
X11233571Y-11725952D01*
X11214524Y-11735476D01*
X11195476Y-11735476D01*
X11176429Y-11725952D01*
X11166905Y-11716428D01*
X11157381Y-11697381D01*
X11147857Y-11659286D01*
X11147857Y-11611667D01*
X11157381Y-11573571D01*
X11166905Y-11554524D01*
X11176429Y-11545000D01*
X11195476Y-11535476D01*
X11347857Y-11716428D02*
X11357381Y-11725952D01*
X11347857Y-11735476D01*
X11338333Y-11725952D01*
X11347857Y-11716428D01*
X11347857Y-11735476D01*
X11481190Y-11535476D02*
X11500238Y-11535476D01*
X11519286Y-11545000D01*
X11528809Y-11554524D01*
X11538333Y-11573571D01*
X11547857Y-11611667D01*
X11547857Y-11659286D01*
X11538333Y-11697381D01*
X11528809Y-11716428D01*
X11519286Y-11725952D01*
X11500238Y-11735476D01*
X11481190Y-11735476D01*
X11462143Y-11725952D01*
X11452619Y-11716428D01*
X11443095Y-11697381D01*
X11433571Y-11659286D01*
X11433571Y-11611667D01*
X11443095Y-11573571D01*
X11452619Y-11554524D01*
X11462143Y-11545000D01*
X11481190Y-11535476D01*
X11614524Y-11535476D02*
X11738333Y-11535476D01*
X11671667Y-11611667D01*
X11700238Y-11611667D01*
X11719286Y-11621190D01*
X11728809Y-11630714D01*
X11738333Y-11649762D01*
X11738333Y-11697381D01*
X11728809Y-11716428D01*
X11719286Y-11725952D01*
X11700238Y-11735476D01*
X11643095Y-11735476D01*
X11624048Y-11725952D01*
X11614524Y-11716428D01*
X11928809Y-11735476D02*
X11814524Y-11735476D01*
X11871667Y-11735476D02*
X11871667Y-11535476D01*
X11852619Y-11564048D01*
X11833571Y-11583095D01*
X11814524Y-11592619D01*
X12109762Y-11535476D02*
X12014524Y-11535476D01*
X12005000Y-11630714D01*
X12014524Y-11621190D01*
X12033571Y-11611667D01*
X12081190Y-11611667D01*
X12100238Y-11621190D01*
X12109762Y-11630714D01*
X12119286Y-11649762D01*
X12119286Y-11697381D01*
X12109762Y-11716428D01*
X12100238Y-11725952D01*
X12081190Y-11735476D01*
X12033571Y-11735476D01*
X12014524Y-11725952D01*
X12005000Y-11716428D01*
X12195476Y-11535476D02*
X12195476Y-11573571D01*
X12271667Y-11535476D02*
X12271667Y-11573571D01*
X12566905Y-11811667D02*
X12557381Y-11802143D01*
X12538333Y-11773571D01*
X12528809Y-11754524D01*
X12519286Y-11725952D01*
X12509762Y-11678333D01*
X12509762Y-11640238D01*
X12519286Y-11592619D01*
X12528809Y-11564048D01*
X12538333Y-11545000D01*
X12557381Y-11516428D01*
X12566905Y-11506905D01*
X12633571Y-11554524D02*
X12643095Y-11545000D01*
X12662143Y-11535476D01*
X12709762Y-11535476D01*
X12728809Y-11545000D01*
X12738333Y-11554524D01*
X12747857Y-11573571D01*
X12747857Y-11592619D01*
X12738333Y-11621190D01*
X12624048Y-11735476D01*
X12747857Y-11735476D01*
X12871667Y-11535476D02*
X12890714Y-11535476D01*
X12909762Y-11545000D01*
X12919286Y-11554524D01*
X12928809Y-11573571D01*
X12938333Y-11611667D01*
X12938333Y-11659286D01*
X12928809Y-11697381D01*
X12919286Y-11716428D01*
X12909762Y-11725952D01*
X12890714Y-11735476D01*
X12871667Y-11735476D01*
X12852619Y-11725952D01*
X12843095Y-11716428D01*
X12833571Y-11697381D01*
X12824048Y-11659286D01*
X12824048Y-11611667D01*
X12833571Y-11573571D01*
X12843095Y-11554524D01*
X12852619Y-11545000D01*
X12871667Y-11535476D01*
X13176428Y-11735476D02*
X13176428Y-11535476D01*
X13262143Y-11735476D02*
X13262143Y-11630714D01*
X13252619Y-11611667D01*
X13233571Y-11602143D01*
X13205000Y-11602143D01*
X13185952Y-11611667D01*
X13176428Y-11621190D01*
X13385952Y-11735476D02*
X13366905Y-11725952D01*
X13357381Y-11716428D01*
X13347857Y-11697381D01*
X13347857Y-11640238D01*
X13357381Y-11621190D01*
X13366905Y-11611667D01*
X13385952Y-11602143D01*
X13414524Y-11602143D01*
X13433571Y-11611667D01*
X13443095Y-11621190D01*
X13452619Y-11640238D01*
X13452619Y-11697381D01*
X13443095Y-11716428D01*
X13433571Y-11725952D01*
X13414524Y-11735476D01*
X13385952Y-11735476D01*
X13566905Y-11735476D02*
X13547857Y-11725952D01*
X13538333Y-11706905D01*
X13538333Y-11535476D01*
X13719286Y-11725952D02*
X13700238Y-11735476D01*
X13662143Y-11735476D01*
X13643095Y-11725952D01*
X13633571Y-11706905D01*
X13633571Y-11630714D01*
X13643095Y-11611667D01*
X13662143Y-11602143D01*
X13700238Y-11602143D01*
X13719286Y-11611667D01*
X13728809Y-11630714D01*
X13728809Y-11649762D01*
X13633571Y-11668809D01*
X13805000Y-11725952D02*
X13824048Y-11735476D01*
X13862143Y-11735476D01*
X13881190Y-11725952D01*
X13890714Y-11706905D01*
X13890714Y-11697381D01*
X13881190Y-11678333D01*
X13862143Y-11668809D01*
X13833571Y-11668809D01*
X13814524Y-11659286D01*
X13805000Y-11640238D01*
X13805000Y-11630714D01*
X13814524Y-11611667D01*
X13833571Y-11602143D01*
X13862143Y-11602143D01*
X13881190Y-11611667D01*
X13957381Y-11811667D02*
X13966905Y-11802143D01*
X13985952Y-11773571D01*
X13995476Y-11754524D01*
X14005000Y-11725952D01*
X14014524Y-11678333D01*
X14014524Y-11640238D01*
X14005000Y-11592619D01*
X13995476Y-11564048D01*
X13985952Y-11545000D01*
X13966905Y-11516428D01*
X13957381Y-11506905D01*
D13*
X8995000Y-11909000D02*
G75*
G03*
X8995000Y-11909000I-40005J0D01*
G01*
D11*
X9290714Y-11799476D02*
X9309762Y-11799476D01*
X9328810Y-11809000D01*
X9338333Y-11818524D01*
X9347857Y-11837571D01*
X9357381Y-11875667D01*
X9357381Y-11923286D01*
X9347857Y-11961381D01*
X9338333Y-11980428D01*
X9328810Y-11989952D01*
X9309762Y-11999476D01*
X9290714Y-11999476D01*
X9271667Y-11989952D01*
X9262143Y-11980428D01*
X9252619Y-11961381D01*
X9243095Y-11923286D01*
X9243095Y-11875667D01*
X9252619Y-11837571D01*
X9262143Y-11818524D01*
X9271667Y-11809000D01*
X9290714Y-11799476D01*
X9443095Y-11980428D02*
X9452619Y-11989952D01*
X9443095Y-11999476D01*
X9433571Y-11989952D01*
X9443095Y-11980428D01*
X9443095Y-11999476D01*
X9566905Y-11885190D02*
X9547857Y-11875667D01*
X9538333Y-11866143D01*
X9528810Y-11847095D01*
X9528810Y-11837571D01*
X9538333Y-11818524D01*
X9547857Y-11809000D01*
X9566905Y-11799476D01*
X9605000Y-11799476D01*
X9624048Y-11809000D01*
X9633571Y-11818524D01*
X9643095Y-11837571D01*
X9643095Y-11847095D01*
X9633571Y-11866143D01*
X9624048Y-11875667D01*
X9605000Y-11885190D01*
X9566905Y-11885190D01*
X9547857Y-11894714D01*
X9538333Y-11904238D01*
X9528810Y-11923286D01*
X9528810Y-11961381D01*
X9538333Y-11980428D01*
X9547857Y-11989952D01*
X9566905Y-11999476D01*
X9605000Y-11999476D01*
X9624048Y-11989952D01*
X9633571Y-11980428D01*
X9643095Y-11961381D01*
X9643095Y-11923286D01*
X9633571Y-11904238D01*
X9624048Y-11894714D01*
X9605000Y-11885190D01*
X9766905Y-11799476D02*
X9785952Y-11799476D01*
X9805000Y-11809000D01*
X9814524Y-11818524D01*
X9824048Y-11837571D01*
X9833571Y-11875667D01*
X9833571Y-11923286D01*
X9824048Y-11961381D01*
X9814524Y-11980428D01*
X9805000Y-11989952D01*
X9785952Y-11999476D01*
X9766905Y-11999476D01*
X9747857Y-11989952D01*
X9738333Y-11980428D01*
X9728810Y-11961381D01*
X9719286Y-11923286D01*
X9719286Y-11875667D01*
X9728810Y-11837571D01*
X9738333Y-11818524D01*
X9747857Y-11809000D01*
X9766905Y-11799476D01*
X9957381Y-11799476D02*
X9976429Y-11799476D01*
X9995476Y-11809000D01*
X10005000Y-11818524D01*
X10014524Y-11837571D01*
X10024048Y-11875667D01*
X10024048Y-11923286D01*
X10014524Y-11961381D01*
X10005000Y-11980428D01*
X9995476Y-11989952D01*
X9976429Y-11999476D01*
X9957381Y-11999476D01*
X9938333Y-11989952D01*
X9928810Y-11980428D01*
X9919286Y-11961381D01*
X9909762Y-11923286D01*
X9909762Y-11875667D01*
X9919286Y-11837571D01*
X9928810Y-11818524D01*
X9938333Y-11809000D01*
X9957381Y-11799476D01*
X10109762Y-11999476D02*
X10109762Y-11866143D01*
X10109762Y-11885190D02*
X10119286Y-11875667D01*
X10138333Y-11866143D01*
X10166905Y-11866143D01*
X10185952Y-11875667D01*
X10195476Y-11894714D01*
X10195476Y-11999476D01*
X10195476Y-11894714D02*
X10205000Y-11875667D01*
X10224048Y-11866143D01*
X10252619Y-11866143D01*
X10271667Y-11875667D01*
X10281190Y-11894714D01*
X10281190Y-11999476D01*
X10376429Y-11999476D02*
X10376429Y-11866143D01*
X10376429Y-11885190D02*
X10385952Y-11875667D01*
X10405000Y-11866143D01*
X10433571Y-11866143D01*
X10452619Y-11875667D01*
X10462143Y-11894714D01*
X10462143Y-11999476D01*
X10462143Y-11894714D02*
X10471667Y-11875667D01*
X10490714Y-11866143D01*
X10519286Y-11866143D01*
X10538333Y-11875667D01*
X10547857Y-11894714D01*
X10547857Y-11999476D01*
X10938333Y-11789952D02*
X10766905Y-12047095D01*
X11195476Y-11799476D02*
X11214524Y-11799476D01*
X11233571Y-11809000D01*
X11243095Y-11818524D01*
X11252619Y-11837571D01*
X11262143Y-11875667D01*
X11262143Y-11923286D01*
X11252619Y-11961381D01*
X11243095Y-11980428D01*
X11233571Y-11989952D01*
X11214524Y-11999476D01*
X11195476Y-11999476D01*
X11176429Y-11989952D01*
X11166905Y-11980428D01*
X11157381Y-11961381D01*
X11147857Y-11923286D01*
X11147857Y-11875667D01*
X11157381Y-11837571D01*
X11166905Y-11818524D01*
X11176429Y-11809000D01*
X11195476Y-11799476D01*
X11347857Y-11980428D02*
X11357381Y-11989952D01*
X11347857Y-11999476D01*
X11338333Y-11989952D01*
X11347857Y-11980428D01*
X11347857Y-11999476D01*
X11481190Y-11799476D02*
X11500238Y-11799476D01*
X11519286Y-11809000D01*
X11528809Y-11818524D01*
X11538333Y-11837571D01*
X11547857Y-11875667D01*
X11547857Y-11923286D01*
X11538333Y-11961381D01*
X11528809Y-11980428D01*
X11519286Y-11989952D01*
X11500238Y-11999476D01*
X11481190Y-11999476D01*
X11462143Y-11989952D01*
X11452619Y-11980428D01*
X11443095Y-11961381D01*
X11433571Y-11923286D01*
X11433571Y-11875667D01*
X11443095Y-11837571D01*
X11452619Y-11818524D01*
X11462143Y-11809000D01*
X11481190Y-11799476D01*
X11614524Y-11799476D02*
X11738333Y-11799476D01*
X11671667Y-11875667D01*
X11700238Y-11875667D01*
X11719286Y-11885190D01*
X11728809Y-11894714D01*
X11738333Y-11913762D01*
X11738333Y-11961381D01*
X11728809Y-11980428D01*
X11719286Y-11989952D01*
X11700238Y-11999476D01*
X11643095Y-11999476D01*
X11624048Y-11989952D01*
X11614524Y-11980428D01*
X11928809Y-11999476D02*
X11814524Y-11999476D01*
X11871667Y-11999476D02*
X11871667Y-11799476D01*
X11852619Y-11828048D01*
X11833571Y-11847095D01*
X11814524Y-11856619D01*
X12109762Y-11799476D02*
X12014524Y-11799476D01*
X12005000Y-11894714D01*
X12014524Y-11885190D01*
X12033571Y-11875667D01*
X12081190Y-11875667D01*
X12100238Y-11885190D01*
X12109762Y-11894714D01*
X12119286Y-11913762D01*
X12119286Y-11961381D01*
X12109762Y-11980428D01*
X12100238Y-11989952D01*
X12081190Y-11999476D01*
X12033571Y-11999476D01*
X12014524Y-11989952D01*
X12005000Y-11980428D01*
X12195476Y-11799476D02*
X12195476Y-11837571D01*
X12271667Y-11799476D02*
X12271667Y-11837571D01*
X12566905Y-12075667D02*
X12557381Y-12066143D01*
X12538333Y-12037571D01*
X12528809Y-12018524D01*
X12519286Y-11989952D01*
X12509762Y-11942333D01*
X12509762Y-11904238D01*
X12519286Y-11856619D01*
X12528809Y-11828048D01*
X12538333Y-11809000D01*
X12557381Y-11780428D01*
X12566905Y-11770905D01*
X12624048Y-11799476D02*
X12747857Y-11799476D01*
X12681190Y-11875667D01*
X12709762Y-11875667D01*
X12728809Y-11885190D01*
X12738333Y-11894714D01*
X12747857Y-11913762D01*
X12747857Y-11961381D01*
X12738333Y-11980428D01*
X12728809Y-11989952D01*
X12709762Y-11999476D01*
X12652619Y-11999476D01*
X12633571Y-11989952D01*
X12624048Y-11980428D01*
X12938333Y-11999476D02*
X12824048Y-11999476D01*
X12881190Y-11999476D02*
X12881190Y-11799476D01*
X12862143Y-11828048D01*
X12843095Y-11847095D01*
X12824048Y-11856619D01*
X13176428Y-11999476D02*
X13176428Y-11799476D01*
X13262143Y-11999476D02*
X13262143Y-11894714D01*
X13252619Y-11875667D01*
X13233571Y-11866143D01*
X13205000Y-11866143D01*
X13185952Y-11875667D01*
X13176428Y-11885190D01*
X13385952Y-11999476D02*
X13366905Y-11989952D01*
X13357381Y-11980428D01*
X13347857Y-11961381D01*
X13347857Y-11904238D01*
X13357381Y-11885190D01*
X13366905Y-11875667D01*
X13385952Y-11866143D01*
X13414524Y-11866143D01*
X13433571Y-11875667D01*
X13443095Y-11885190D01*
X13452619Y-11904238D01*
X13452619Y-11961381D01*
X13443095Y-11980428D01*
X13433571Y-11989952D01*
X13414524Y-11999476D01*
X13385952Y-11999476D01*
X13566905Y-11999476D02*
X13547857Y-11989952D01*
X13538333Y-11970905D01*
X13538333Y-11799476D01*
X13719286Y-11989952D02*
X13700238Y-11999476D01*
X13662143Y-11999476D01*
X13643095Y-11989952D01*
X13633571Y-11970905D01*
X13633571Y-11894714D01*
X13643095Y-11875667D01*
X13662143Y-11866143D01*
X13700238Y-11866143D01*
X13719286Y-11875667D01*
X13728809Y-11894714D01*
X13728809Y-11913762D01*
X13633571Y-11932809D01*
X13805000Y-11989952D02*
X13824048Y-11999476D01*
X13862143Y-11999476D01*
X13881190Y-11989952D01*
X13890714Y-11970905D01*
X13890714Y-11961381D01*
X13881190Y-11942333D01*
X13862143Y-11932809D01*
X13833571Y-11932809D01*
X13814524Y-11923286D01*
X13805000Y-11904238D01*
X13805000Y-11894714D01*
X13814524Y-11875667D01*
X13833571Y-11866143D01*
X13862143Y-11866143D01*
X13881190Y-11875667D01*
X13957381Y-12075667D02*
X13966905Y-12066143D01*
X13985952Y-12037571D01*
X13995476Y-12018524D01*
X14005000Y-11989952D01*
X14014524Y-11942333D01*
X14014524Y-11904238D01*
X14005000Y-11856619D01*
X13995476Y-11828048D01*
X13985952Y-11809000D01*
X13966905Y-11780428D01*
X13957381Y-11770905D01*
D14*
X8950000Y-12128000D02*
X8950000Y-12218000D01*
X8905000Y-12173000D02*
X8995000Y-12173000D01*
D11*
X9290714Y-12063476D02*
X9309762Y-12063476D01*
X9328810Y-12073000D01*
X9338333Y-12082524D01*
X9347857Y-12101571D01*
X9357381Y-12139667D01*
X9357381Y-12187286D01*
X9347857Y-12225381D01*
X9338333Y-12244428D01*
X9328810Y-12253952D01*
X9309762Y-12263476D01*
X9290714Y-12263476D01*
X9271667Y-12253952D01*
X9262143Y-12244428D01*
X9252619Y-12225381D01*
X9243095Y-12187286D01*
X9243095Y-12139667D01*
X9252619Y-12101571D01*
X9262143Y-12082524D01*
X9271667Y-12073000D01*
X9290714Y-12063476D01*
X9443095Y-12244428D02*
X9452619Y-12253952D01*
X9443095Y-12263476D01*
X9433571Y-12253952D01*
X9443095Y-12244428D01*
X9443095Y-12263476D01*
X9547857Y-12263476D02*
X9585952Y-12263476D01*
X9605000Y-12253952D01*
X9614524Y-12244428D01*
X9633571Y-12215857D01*
X9643095Y-12177762D01*
X9643095Y-12101571D01*
X9633571Y-12082524D01*
X9624048Y-12073000D01*
X9605000Y-12063476D01*
X9566905Y-12063476D01*
X9547857Y-12073000D01*
X9538333Y-12082524D01*
X9528810Y-12101571D01*
X9528810Y-12149190D01*
X9538333Y-12168238D01*
X9547857Y-12177762D01*
X9566905Y-12187286D01*
X9605000Y-12187286D01*
X9624048Y-12177762D01*
X9633571Y-12168238D01*
X9643095Y-12149190D01*
X9766905Y-12063476D02*
X9785952Y-12063476D01*
X9805000Y-12073000D01*
X9814524Y-12082524D01*
X9824048Y-12101571D01*
X9833571Y-12139667D01*
X9833571Y-12187286D01*
X9824048Y-12225381D01*
X9814524Y-12244428D01*
X9805000Y-12253952D01*
X9785952Y-12263476D01*
X9766905Y-12263476D01*
X9747857Y-12253952D01*
X9738333Y-12244428D01*
X9728810Y-12225381D01*
X9719286Y-12187286D01*
X9719286Y-12139667D01*
X9728810Y-12101571D01*
X9738333Y-12082524D01*
X9747857Y-12073000D01*
X9766905Y-12063476D01*
X9957381Y-12063476D02*
X9976429Y-12063476D01*
X9995476Y-12073000D01*
X10005000Y-12082524D01*
X10014524Y-12101571D01*
X10024048Y-12139667D01*
X10024048Y-12187286D01*
X10014524Y-12225381D01*
X10005000Y-12244428D01*
X9995476Y-12253952D01*
X9976429Y-12263476D01*
X9957381Y-12263476D01*
X9938333Y-12253952D01*
X9928810Y-12244428D01*
X9919286Y-12225381D01*
X9909762Y-12187286D01*
X9909762Y-12139667D01*
X9919286Y-12101571D01*
X9928810Y-12082524D01*
X9938333Y-12073000D01*
X9957381Y-12063476D01*
X10109762Y-12263476D02*
X10109762Y-12130143D01*
X10109762Y-12149190D02*
X10119286Y-12139667D01*
X10138333Y-12130143D01*
X10166905Y-12130143D01*
X10185952Y-12139667D01*
X10195476Y-12158714D01*
X10195476Y-12263476D01*
X10195476Y-12158714D02*
X10205000Y-12139667D01*
X10224048Y-12130143D01*
X10252619Y-12130143D01*
X10271667Y-12139667D01*
X10281190Y-12158714D01*
X10281190Y-12263476D01*
X10376429Y-12263476D02*
X10376429Y-12130143D01*
X10376429Y-12149190D02*
X10385952Y-12139667D01*
X10405000Y-12130143D01*
X10433571Y-12130143D01*
X10452619Y-12139667D01*
X10462143Y-12158714D01*
X10462143Y-12263476D01*
X10462143Y-12158714D02*
X10471667Y-12139667D01*
X10490714Y-12130143D01*
X10519286Y-12130143D01*
X10538333Y-12139667D01*
X10547857Y-12158714D01*
X10547857Y-12263476D01*
X10938333Y-12053952D02*
X10766905Y-12311095D01*
X11195476Y-12063476D02*
X11214524Y-12063476D01*
X11233571Y-12073000D01*
X11243095Y-12082524D01*
X11252619Y-12101571D01*
X11262143Y-12139667D01*
X11262143Y-12187286D01*
X11252619Y-12225381D01*
X11243095Y-12244428D01*
X11233571Y-12253952D01*
X11214524Y-12263476D01*
X11195476Y-12263476D01*
X11176429Y-12253952D01*
X11166905Y-12244428D01*
X11157381Y-12225381D01*
X11147857Y-12187286D01*
X11147857Y-12139667D01*
X11157381Y-12101571D01*
X11166905Y-12082524D01*
X11176429Y-12073000D01*
X11195476Y-12063476D01*
X11347857Y-12244428D02*
X11357381Y-12253952D01*
X11347857Y-12263476D01*
X11338333Y-12253952D01*
X11347857Y-12244428D01*
X11347857Y-12263476D01*
X11481190Y-12063476D02*
X11500238Y-12063476D01*
X11519286Y-12073000D01*
X11528809Y-12082524D01*
X11538333Y-12101571D01*
X11547857Y-12139667D01*
X11547857Y-12187286D01*
X11538333Y-12225381D01*
X11528809Y-12244428D01*
X11519286Y-12253952D01*
X11500238Y-12263476D01*
X11481190Y-12263476D01*
X11462143Y-12253952D01*
X11452619Y-12244428D01*
X11443095Y-12225381D01*
X11433571Y-12187286D01*
X11433571Y-12139667D01*
X11443095Y-12101571D01*
X11452619Y-12082524D01*
X11462143Y-12073000D01*
X11481190Y-12063476D01*
X11614524Y-12063476D02*
X11738333Y-12063476D01*
X11671667Y-12139667D01*
X11700238Y-12139667D01*
X11719286Y-12149190D01*
X11728809Y-12158714D01*
X11738333Y-12177762D01*
X11738333Y-12225381D01*
X11728809Y-12244428D01*
X11719286Y-12253952D01*
X11700238Y-12263476D01*
X11643095Y-12263476D01*
X11624048Y-12253952D01*
X11614524Y-12244428D01*
X11919286Y-12063476D02*
X11824048Y-12063476D01*
X11814524Y-12158714D01*
X11824048Y-12149190D01*
X11843095Y-12139667D01*
X11890714Y-12139667D01*
X11909762Y-12149190D01*
X11919286Y-12158714D01*
X11928809Y-12177762D01*
X11928809Y-12225381D01*
X11919286Y-12244428D01*
X11909762Y-12253952D01*
X11890714Y-12263476D01*
X11843095Y-12263476D01*
X11824048Y-12253952D01*
X11814524Y-12244428D01*
X12100238Y-12130143D02*
X12100238Y-12263476D01*
X12052619Y-12053952D02*
X12005000Y-12196809D01*
X12128809Y-12196809D01*
X12195476Y-12063476D02*
X12195476Y-12101571D01*
X12271667Y-12063476D02*
X12271667Y-12101571D01*
X12566905Y-12339667D02*
X12557381Y-12330143D01*
X12538333Y-12301571D01*
X12528809Y-12282524D01*
X12519286Y-12253952D01*
X12509762Y-12206333D01*
X12509762Y-12168238D01*
X12519286Y-12120619D01*
X12528809Y-12092048D01*
X12538333Y-12073000D01*
X12557381Y-12044428D01*
X12566905Y-12034905D01*
X12728809Y-12063476D02*
X12690714Y-12063476D01*
X12671667Y-12073000D01*
X12662143Y-12082524D01*
X12643095Y-12111095D01*
X12633571Y-12149190D01*
X12633571Y-12225381D01*
X12643095Y-12244428D01*
X12652619Y-12253952D01*
X12671667Y-12263476D01*
X12709762Y-12263476D01*
X12728809Y-12253952D01*
X12738333Y-12244428D01*
X12747857Y-12225381D01*
X12747857Y-12177762D01*
X12738333Y-12158714D01*
X12728809Y-12149190D01*
X12709762Y-12139667D01*
X12671667Y-12139667D01*
X12652619Y-12149190D01*
X12643095Y-12158714D01*
X12633571Y-12177762D01*
X12985952Y-12263476D02*
X12985952Y-12063476D01*
X13071667Y-12263476D02*
X13071667Y-12158714D01*
X13062143Y-12139667D01*
X13043095Y-12130143D01*
X13014524Y-12130143D01*
X12995476Y-12139667D01*
X12985952Y-12149190D01*
X13195476Y-12263476D02*
X13176428Y-12253952D01*
X13166905Y-12244428D01*
X13157381Y-12225381D01*
X13157381Y-12168238D01*
X13166905Y-12149190D01*
X13176428Y-12139667D01*
X13195476Y-12130143D01*
X13224048Y-12130143D01*
X13243095Y-12139667D01*
X13252619Y-12149190D01*
X13262143Y-12168238D01*
X13262143Y-12225381D01*
X13252619Y-12244428D01*
X13243095Y-12253952D01*
X13224048Y-12263476D01*
X13195476Y-12263476D01*
X13376428Y-12263476D02*
X13357381Y-12253952D01*
X13347857Y-12234905D01*
X13347857Y-12063476D01*
X13528809Y-12253952D02*
X13509762Y-12263476D01*
X13471667Y-12263476D01*
X13452619Y-12253952D01*
X13443095Y-12234905D01*
X13443095Y-12158714D01*
X13452619Y-12139667D01*
X13471667Y-12130143D01*
X13509762Y-12130143D01*
X13528809Y-12139667D01*
X13538333Y-12158714D01*
X13538333Y-12177762D01*
X13443095Y-12196809D01*
X13614524Y-12253952D02*
X13633571Y-12263476D01*
X13671667Y-12263476D01*
X13690714Y-12253952D01*
X13700238Y-12234905D01*
X13700238Y-12225381D01*
X13690714Y-12206333D01*
X13671667Y-12196809D01*
X13643095Y-12196809D01*
X13624048Y-12187286D01*
X13614524Y-12168238D01*
X13614524Y-12158714D01*
X13624048Y-12139667D01*
X13643095Y-12130143D01*
X13671667Y-12130143D01*
X13690714Y-12139667D01*
X13766905Y-12339667D02*
X13776428Y-12330143D01*
X13795476Y-12301571D01*
X13805000Y-12282524D01*
X13814524Y-12253952D01*
X13824048Y-12206333D01*
X13824048Y-12168238D01*
X13814524Y-12120619D01*
X13805000Y-12092048D01*
X13795476Y-12073000D01*
X13776428Y-12044428D01*
X13766905Y-12034905D01*
D10*
X8980356Y-12472356D02*
X8980356Y-12401644D01*
X8909644Y-12401644D01*
X8909644Y-12472356D01*
X8980356Y-12472356D01*
D11*
X9357381Y-12527476D02*
X9243095Y-12527476D01*
X9300238Y-12527476D02*
X9300238Y-12327476D01*
X9281190Y-12356048D01*
X9262143Y-12375095D01*
X9243095Y-12384619D01*
X9443095Y-12508428D02*
X9452619Y-12517952D01*
X9443095Y-12527476D01*
X9433571Y-12517952D01*
X9443095Y-12508428D01*
X9443095Y-12527476D01*
X9576429Y-12327476D02*
X9595476Y-12327476D01*
X9614524Y-12337000D01*
X9624048Y-12346524D01*
X9633571Y-12365571D01*
X9643095Y-12403667D01*
X9643095Y-12451286D01*
X9633571Y-12489381D01*
X9624048Y-12508428D01*
X9614524Y-12517952D01*
X9595476Y-12527476D01*
X9576429Y-12527476D01*
X9557381Y-12517952D01*
X9547857Y-12508428D01*
X9538333Y-12489381D01*
X9528810Y-12451286D01*
X9528810Y-12403667D01*
X9538333Y-12365571D01*
X9547857Y-12346524D01*
X9557381Y-12337000D01*
X9576429Y-12327476D01*
X9766905Y-12327476D02*
X9785952Y-12327476D01*
X9805000Y-12337000D01*
X9814524Y-12346524D01*
X9824048Y-12365571D01*
X9833571Y-12403667D01*
X9833571Y-12451286D01*
X9824048Y-12489381D01*
X9814524Y-12508428D01*
X9805000Y-12517952D01*
X9785952Y-12527476D01*
X9766905Y-12527476D01*
X9747857Y-12517952D01*
X9738333Y-12508428D01*
X9728810Y-12489381D01*
X9719286Y-12451286D01*
X9719286Y-12403667D01*
X9728810Y-12365571D01*
X9738333Y-12346524D01*
X9747857Y-12337000D01*
X9766905Y-12327476D01*
X9957381Y-12327476D02*
X9976429Y-12327476D01*
X9995476Y-12337000D01*
X10005000Y-12346524D01*
X10014524Y-12365571D01*
X10024048Y-12403667D01*
X10024048Y-12451286D01*
X10014524Y-12489381D01*
X10005000Y-12508428D01*
X9995476Y-12517952D01*
X9976429Y-12527476D01*
X9957381Y-12527476D01*
X9938333Y-12517952D01*
X9928810Y-12508428D01*
X9919286Y-12489381D01*
X9909762Y-12451286D01*
X9909762Y-12403667D01*
X9919286Y-12365571D01*
X9928810Y-12346524D01*
X9938333Y-12337000D01*
X9957381Y-12327476D01*
X10109762Y-12527476D02*
X10109762Y-12394143D01*
X10109762Y-12413190D02*
X10119286Y-12403667D01*
X10138333Y-12394143D01*
X10166905Y-12394143D01*
X10185952Y-12403667D01*
X10195476Y-12422714D01*
X10195476Y-12527476D01*
X10195476Y-12422714D02*
X10205000Y-12403667D01*
X10224048Y-12394143D01*
X10252619Y-12394143D01*
X10271667Y-12403667D01*
X10281190Y-12422714D01*
X10281190Y-12527476D01*
X10376429Y-12527476D02*
X10376429Y-12394143D01*
X10376429Y-12413190D02*
X10385952Y-12403667D01*
X10405000Y-12394143D01*
X10433571Y-12394143D01*
X10452619Y-12403667D01*
X10462143Y-12422714D01*
X10462143Y-12527476D01*
X10462143Y-12422714D02*
X10471667Y-12403667D01*
X10490714Y-12394143D01*
X10519286Y-12394143D01*
X10538333Y-12403667D01*
X10547857Y-12422714D01*
X10547857Y-12527476D01*
X10938333Y-12317952D02*
X10766905Y-12575095D01*
X11195476Y-12327476D02*
X11214524Y-12327476D01*
X11233571Y-12337000D01*
X11243095Y-12346524D01*
X11252619Y-12365571D01*
X11262143Y-12403667D01*
X11262143Y-12451286D01*
X11252619Y-12489381D01*
X11243095Y-12508428D01*
X11233571Y-12517952D01*
X11214524Y-12527476D01*
X11195476Y-12527476D01*
X11176429Y-12517952D01*
X11166905Y-12508428D01*
X11157381Y-12489381D01*
X11147857Y-12451286D01*
X11147857Y-12403667D01*
X11157381Y-12365571D01*
X11166905Y-12346524D01*
X11176429Y-12337000D01*
X11195476Y-12327476D01*
X11347857Y-12508428D02*
X11357381Y-12517952D01*
X11347857Y-12527476D01*
X11338333Y-12517952D01*
X11347857Y-12508428D01*
X11347857Y-12527476D01*
X11481190Y-12327476D02*
X11500238Y-12327476D01*
X11519286Y-12337000D01*
X11528809Y-12346524D01*
X11538333Y-12365571D01*
X11547857Y-12403667D01*
X11547857Y-12451286D01*
X11538333Y-12489381D01*
X11528809Y-12508428D01*
X11519286Y-12517952D01*
X11500238Y-12527476D01*
X11481190Y-12527476D01*
X11462143Y-12517952D01*
X11452619Y-12508428D01*
X11443095Y-12489381D01*
X11433571Y-12451286D01*
X11433571Y-12403667D01*
X11443095Y-12365571D01*
X11452619Y-12346524D01*
X11462143Y-12337000D01*
X11481190Y-12327476D01*
X11614524Y-12327476D02*
X11738333Y-12327476D01*
X11671667Y-12403667D01*
X11700238Y-12403667D01*
X11719286Y-12413190D01*
X11728809Y-12422714D01*
X11738333Y-12441762D01*
X11738333Y-12489381D01*
X11728809Y-12508428D01*
X11719286Y-12517952D01*
X11700238Y-12527476D01*
X11643095Y-12527476D01*
X11624048Y-12517952D01*
X11614524Y-12508428D01*
X11833571Y-12527476D02*
X11871667Y-12527476D01*
X11890714Y-12517952D01*
X11900238Y-12508428D01*
X11919286Y-12479857D01*
X11928809Y-12441762D01*
X11928809Y-12365571D01*
X11919286Y-12346524D01*
X11909762Y-12337000D01*
X11890714Y-12327476D01*
X11852619Y-12327476D01*
X11833571Y-12337000D01*
X11824048Y-12346524D01*
X11814524Y-12365571D01*
X11814524Y-12413190D01*
X11824048Y-12432238D01*
X11833571Y-12441762D01*
X11852619Y-12451286D01*
X11890714Y-12451286D01*
X11909762Y-12441762D01*
X11919286Y-12432238D01*
X11928809Y-12413190D01*
X12100238Y-12394143D02*
X12100238Y-12527476D01*
X12052619Y-12317952D02*
X12005000Y-12460809D01*
X12128809Y-12460809D01*
X12195476Y-12327476D02*
X12195476Y-12365571D01*
X12271667Y-12327476D02*
X12271667Y-12365571D01*
X12566905Y-12603667D02*
X12557381Y-12594143D01*
X12538333Y-12565571D01*
X12528809Y-12546524D01*
X12519286Y-12517952D01*
X12509762Y-12470333D01*
X12509762Y-12432238D01*
X12519286Y-12384619D01*
X12528809Y-12356048D01*
X12538333Y-12337000D01*
X12557381Y-12308428D01*
X12566905Y-12298905D01*
X12624048Y-12327476D02*
X12747857Y-12327476D01*
X12681190Y-12403667D01*
X12709762Y-12403667D01*
X12728809Y-12413190D01*
X12738333Y-12422714D01*
X12747857Y-12441762D01*
X12747857Y-12489381D01*
X12738333Y-12508428D01*
X12728809Y-12517952D01*
X12709762Y-12527476D01*
X12652619Y-12527476D01*
X12633571Y-12517952D01*
X12624048Y-12508428D01*
X12919286Y-12394143D02*
X12919286Y-12527476D01*
X12871667Y-12317952D02*
X12824048Y-12460809D01*
X12947857Y-12460809D01*
X13176428Y-12527476D02*
X13176428Y-12327476D01*
X13262143Y-12527476D02*
X13262143Y-12422714D01*
X13252619Y-12403667D01*
X13233571Y-12394143D01*
X13205000Y-12394143D01*
X13185952Y-12403667D01*
X13176428Y-12413190D01*
X13385952Y-12527476D02*
X13366905Y-12517952D01*
X13357381Y-12508428D01*
X13347857Y-12489381D01*
X13347857Y-12432238D01*
X13357381Y-12413190D01*
X13366905Y-12403667D01*
X13385952Y-12394143D01*
X13414524Y-12394143D01*
X13433571Y-12403667D01*
X13443095Y-12413190D01*
X13452619Y-12432238D01*
X13452619Y-12489381D01*
X13443095Y-12508428D01*
X13433571Y-12517952D01*
X13414524Y-12527476D01*
X13385952Y-12527476D01*
X13566905Y-12527476D02*
X13547857Y-12517952D01*
X13538333Y-12498905D01*
X13538333Y-12327476D01*
X13719286Y-12517952D02*
X13700238Y-12527476D01*
X13662143Y-12527476D01*
X13643095Y-12517952D01*
X13633571Y-12498905D01*
X13633571Y-12422714D01*
X13643095Y-12403667D01*
X13662143Y-12394143D01*
X13700238Y-12394143D01*
X13719286Y-12403667D01*
X13728809Y-12422714D01*
X13728809Y-12441762D01*
X13633571Y-12460809D01*
X13805000Y-12517952D02*
X13824048Y-12527476D01*
X13862143Y-12527476D01*
X13881190Y-12517952D01*
X13890714Y-12498905D01*
X13890714Y-12489381D01*
X13881190Y-12470333D01*
X13862143Y-12460809D01*
X13833571Y-12460809D01*
X13814524Y-12451286D01*
X13805000Y-12432238D01*
X13805000Y-12422714D01*
X13814524Y-12403667D01*
X13833571Y-12394143D01*
X13862143Y-12394143D01*
X13881190Y-12403667D01*
X14128809Y-12451286D02*
X14281190Y-12451286D01*
X14205000Y-12527476D02*
X14205000Y-12375095D01*
X14509762Y-12327476D02*
X14633571Y-12327476D01*
X14566905Y-12403667D01*
X14595476Y-12403667D01*
X14614524Y-12413190D01*
X14624048Y-12422714D01*
X14633571Y-12441762D01*
X14633571Y-12489381D01*
X14624048Y-12508428D01*
X14614524Y-12517952D01*
X14595476Y-12527476D01*
X14538333Y-12527476D01*
X14519286Y-12517952D01*
X14509762Y-12508428D01*
X14862143Y-12517952D02*
X14881190Y-12527476D01*
X14919286Y-12527476D01*
X14938333Y-12517952D01*
X14947857Y-12498905D01*
X14947857Y-12489381D01*
X14938333Y-12470333D01*
X14919286Y-12460809D01*
X14890714Y-12460809D01*
X14871667Y-12451286D01*
X14862143Y-12432238D01*
X14862143Y-12422714D01*
X14871667Y-12403667D01*
X14890714Y-12394143D01*
X14919286Y-12394143D01*
X14938333Y-12403667D01*
X15062143Y-12527476D02*
X15043095Y-12517952D01*
X15033571Y-12498905D01*
X15033571Y-12327476D01*
X15166905Y-12527476D02*
X15147857Y-12517952D01*
X15138333Y-12508428D01*
X15128809Y-12489381D01*
X15128809Y-12432238D01*
X15138333Y-12413190D01*
X15147857Y-12403667D01*
X15166905Y-12394143D01*
X15195476Y-12394143D01*
X15214524Y-12403667D01*
X15224048Y-12413190D01*
X15233571Y-12432238D01*
X15233571Y-12489381D01*
X15224048Y-12508428D01*
X15214524Y-12517952D01*
X15195476Y-12527476D01*
X15166905Y-12527476D01*
X15290714Y-12394143D02*
X15366905Y-12394143D01*
X15319286Y-12327476D02*
X15319286Y-12498905D01*
X15328809Y-12517952D01*
X15347857Y-12527476D01*
X15366905Y-12527476D01*
X15424048Y-12517952D02*
X15443095Y-12527476D01*
X15481190Y-12527476D01*
X15500238Y-12517952D01*
X15509762Y-12498905D01*
X15509762Y-12489381D01*
X15500238Y-12470333D01*
X15481190Y-12460809D01*
X15452619Y-12460809D01*
X15433571Y-12451286D01*
X15424048Y-12432238D01*
X15424048Y-12422714D01*
X15433571Y-12403667D01*
X15452619Y-12394143D01*
X15481190Y-12394143D01*
X15500238Y-12403667D01*
X15576428Y-12603667D02*
X15585952Y-12594143D01*
X15605000Y-12565571D01*
X15614524Y-12546524D01*
X15624048Y-12517952D01*
X15633571Y-12470333D01*
X15633571Y-12432238D01*
X15624048Y-12384619D01*
X15614524Y-12356048D01*
X15605000Y-12337000D01*
X15585952Y-12308428D01*
X15576428Y-12298905D01*
D15*
X8930000Y-12766000D02*
X8995000Y-12701000D01*
X8930000Y-12636000D01*
X8865000Y-12701000D01*
X8930000Y-12766000D01*
D11*
X9357381Y-12791476D02*
X9243095Y-12791476D01*
X9300238Y-12791476D02*
X9300238Y-12591476D01*
X9281190Y-12620048D01*
X9262143Y-12639095D01*
X9243095Y-12648619D01*
X9443095Y-12772428D02*
X9452619Y-12781952D01*
X9443095Y-12791476D01*
X9433571Y-12781952D01*
X9443095Y-12772428D01*
X9443095Y-12791476D01*
X9519286Y-12591476D02*
X9643095Y-12591476D01*
X9576429Y-12667667D01*
X9605000Y-12667667D01*
X9624048Y-12677190D01*
X9633571Y-12686714D01*
X9643095Y-12705762D01*
X9643095Y-12753381D01*
X9633571Y-12772428D01*
X9624048Y-12781952D01*
X9605000Y-12791476D01*
X9547857Y-12791476D01*
X9528810Y-12781952D01*
X9519286Y-12772428D01*
X9766905Y-12591476D02*
X9785952Y-12591476D01*
X9805000Y-12601000D01*
X9814524Y-12610524D01*
X9824048Y-12629571D01*
X9833571Y-12667667D01*
X9833571Y-12715286D01*
X9824048Y-12753381D01*
X9814524Y-12772428D01*
X9805000Y-12781952D01*
X9785952Y-12791476D01*
X9766905Y-12791476D01*
X9747857Y-12781952D01*
X9738333Y-12772428D01*
X9728810Y-12753381D01*
X9719286Y-12715286D01*
X9719286Y-12667667D01*
X9728810Y-12629571D01*
X9738333Y-12610524D01*
X9747857Y-12601000D01*
X9766905Y-12591476D01*
X9957381Y-12591476D02*
X9976429Y-12591476D01*
X9995476Y-12601000D01*
X10005000Y-12610524D01*
X10014524Y-12629571D01*
X10024048Y-12667667D01*
X10024048Y-12715286D01*
X10014524Y-12753381D01*
X10005000Y-12772428D01*
X9995476Y-12781952D01*
X9976429Y-12791476D01*
X9957381Y-12791476D01*
X9938333Y-12781952D01*
X9928810Y-12772428D01*
X9919286Y-12753381D01*
X9909762Y-12715286D01*
X9909762Y-12667667D01*
X9919286Y-12629571D01*
X9928810Y-12610524D01*
X9938333Y-12601000D01*
X9957381Y-12591476D01*
X10109762Y-12791476D02*
X10109762Y-12658143D01*
X10109762Y-12677190D02*
X10119286Y-12667667D01*
X10138333Y-12658143D01*
X10166905Y-12658143D01*
X10185952Y-12667667D01*
X10195476Y-12686714D01*
X10195476Y-12791476D01*
X10195476Y-12686714D02*
X10205000Y-12667667D01*
X10224048Y-12658143D01*
X10252619Y-12658143D01*
X10271667Y-12667667D01*
X10281190Y-12686714D01*
X10281190Y-12791476D01*
X10376429Y-12791476D02*
X10376429Y-12658143D01*
X10376429Y-12677190D02*
X10385952Y-12667667D01*
X10405000Y-12658143D01*
X10433571Y-12658143D01*
X10452619Y-12667667D01*
X10462143Y-12686714D01*
X10462143Y-12791476D01*
X10462143Y-12686714D02*
X10471667Y-12667667D01*
X10490714Y-12658143D01*
X10519286Y-12658143D01*
X10538333Y-12667667D01*
X10547857Y-12686714D01*
X10547857Y-12791476D01*
X10938333Y-12581952D02*
X10766905Y-12839095D01*
X11195476Y-12591476D02*
X11214524Y-12591476D01*
X11233571Y-12601000D01*
X11243095Y-12610524D01*
X11252619Y-12629571D01*
X11262143Y-12667667D01*
X11262143Y-12715286D01*
X11252619Y-12753381D01*
X11243095Y-12772428D01*
X11233571Y-12781952D01*
X11214524Y-12791476D01*
X11195476Y-12791476D01*
X11176429Y-12781952D01*
X11166905Y-12772428D01*
X11157381Y-12753381D01*
X11147857Y-12715286D01*
X11147857Y-12667667D01*
X11157381Y-12629571D01*
X11166905Y-12610524D01*
X11176429Y-12601000D01*
X11195476Y-12591476D01*
X11347857Y-12772428D02*
X11357381Y-12781952D01*
X11347857Y-12791476D01*
X11338333Y-12781952D01*
X11347857Y-12772428D01*
X11347857Y-12791476D01*
X11481190Y-12591476D02*
X11500238Y-12591476D01*
X11519286Y-12601000D01*
X11528809Y-12610524D01*
X11538333Y-12629571D01*
X11547857Y-12667667D01*
X11547857Y-12715286D01*
X11538333Y-12753381D01*
X11528809Y-12772428D01*
X11519286Y-12781952D01*
X11500238Y-12791476D01*
X11481190Y-12791476D01*
X11462143Y-12781952D01*
X11452619Y-12772428D01*
X11443095Y-12753381D01*
X11433571Y-12715286D01*
X11433571Y-12667667D01*
X11443095Y-12629571D01*
X11452619Y-12610524D01*
X11462143Y-12601000D01*
X11481190Y-12591476D01*
X11728809Y-12591476D02*
X11633571Y-12591476D01*
X11624048Y-12686714D01*
X11633571Y-12677190D01*
X11652619Y-12667667D01*
X11700238Y-12667667D01*
X11719286Y-12677190D01*
X11728809Y-12686714D01*
X11738333Y-12705762D01*
X11738333Y-12753381D01*
X11728809Y-12772428D01*
X11719286Y-12781952D01*
X11700238Y-12791476D01*
X11652619Y-12791476D01*
X11633571Y-12781952D01*
X11624048Y-12772428D01*
X11928809Y-12791476D02*
X11814524Y-12791476D01*
X11871667Y-12791476D02*
X11871667Y-12591476D01*
X11852619Y-12620048D01*
X11833571Y-12639095D01*
X11814524Y-12648619D01*
X12005000Y-12610524D02*
X12014524Y-12601000D01*
X12033571Y-12591476D01*
X12081190Y-12591476D01*
X12100238Y-12601000D01*
X12109762Y-12610524D01*
X12119286Y-12629571D01*
X12119286Y-12648619D01*
X12109762Y-12677190D01*
X11995476Y-12791476D01*
X12119286Y-12791476D01*
X12195476Y-12591476D02*
X12195476Y-12629571D01*
X12271667Y-12591476D02*
X12271667Y-12629571D01*
X12566905Y-12867667D02*
X12557381Y-12858143D01*
X12538333Y-12829571D01*
X12528809Y-12810524D01*
X12519286Y-12781952D01*
X12509762Y-12734333D01*
X12509762Y-12696238D01*
X12519286Y-12648619D01*
X12528809Y-12620048D01*
X12538333Y-12601000D01*
X12557381Y-12572428D01*
X12566905Y-12562905D01*
X12633571Y-12610524D02*
X12643095Y-12601000D01*
X12662143Y-12591476D01*
X12709762Y-12591476D01*
X12728809Y-12601000D01*
X12738333Y-12610524D01*
X12747857Y-12629571D01*
X12747857Y-12648619D01*
X12738333Y-12677190D01*
X12624048Y-12791476D01*
X12747857Y-12791476D01*
X12985952Y-12791476D02*
X12985952Y-12591476D01*
X13071667Y-12791476D02*
X13071667Y-12686714D01*
X13062143Y-12667667D01*
X13043095Y-12658143D01*
X13014524Y-12658143D01*
X12995476Y-12667667D01*
X12985952Y-12677190D01*
X13195476Y-12791476D02*
X13176428Y-12781952D01*
X13166905Y-12772428D01*
X13157381Y-12753381D01*
X13157381Y-12696238D01*
X13166905Y-12677190D01*
X13176428Y-12667667D01*
X13195476Y-12658143D01*
X13224048Y-12658143D01*
X13243095Y-12667667D01*
X13252619Y-12677190D01*
X13262143Y-12696238D01*
X13262143Y-12753381D01*
X13252619Y-12772428D01*
X13243095Y-12781952D01*
X13224048Y-12791476D01*
X13195476Y-12791476D01*
X13376428Y-12791476D02*
X13357381Y-12781952D01*
X13347857Y-12762905D01*
X13347857Y-12591476D01*
X13528809Y-12781952D02*
X13509762Y-12791476D01*
X13471667Y-12791476D01*
X13452619Y-12781952D01*
X13443095Y-12762905D01*
X13443095Y-12686714D01*
X13452619Y-12667667D01*
X13471667Y-12658143D01*
X13509762Y-12658143D01*
X13528809Y-12667667D01*
X13538333Y-12686714D01*
X13538333Y-12705762D01*
X13443095Y-12724809D01*
X13614524Y-12781952D02*
X13633571Y-12791476D01*
X13671667Y-12791476D01*
X13690714Y-12781952D01*
X13700238Y-12762905D01*
X13700238Y-12753381D01*
X13690714Y-12734333D01*
X13671667Y-12724809D01*
X13643095Y-12724809D01*
X13624048Y-12715286D01*
X13614524Y-12696238D01*
X13614524Y-12686714D01*
X13624048Y-12667667D01*
X13643095Y-12658143D01*
X13671667Y-12658143D01*
X13690714Y-12667667D01*
X13766905Y-12867667D02*
X13776428Y-12858143D01*
X13795476Y-12829571D01*
X13805000Y-12810524D01*
X13814524Y-12781952D01*
X13824048Y-12734333D01*
X13824048Y-12696238D01*
X13814524Y-12648619D01*
X13805000Y-12620048D01*
X13795476Y-12601000D01*
X13776428Y-12572428D01*
X13766905Y-12562905D01*
X8795000Y-12865000D02*
X8995000Y-13065000D01*
X8995000Y-12865000D02*
X8795000Y-13065000D01*
X8995000Y-12965000D02*
G75*
G03*
X8995000Y-12965000I-100000J0D01*
G01*
X9233571Y-12855476D02*
X9357381Y-12855476D01*
X9290714Y-12931667D01*
X9319286Y-12931667D01*
X9338333Y-12941190D01*
X9347857Y-12950714D01*
X9357381Y-12969762D01*
X9357381Y-13017381D01*
X9347857Y-13036428D01*
X9338333Y-13045952D01*
X9319286Y-13055476D01*
X9262143Y-13055476D01*
X9243095Y-13045952D01*
X9233571Y-13036428D01*
X9443095Y-13036428D02*
X9452619Y-13045952D01*
X9443095Y-13055476D01*
X9433571Y-13045952D01*
X9443095Y-13036428D01*
X9443095Y-13055476D01*
X9519286Y-12855476D02*
X9652619Y-12855476D01*
X9566905Y-13055476D01*
X9766905Y-12855476D02*
X9785952Y-12855476D01*
X9805000Y-12865000D01*
X9814524Y-12874524D01*
X9824048Y-12893571D01*
X9833571Y-12931667D01*
X9833571Y-12979286D01*
X9824048Y-13017381D01*
X9814524Y-13036428D01*
X9805000Y-13045952D01*
X9785952Y-13055476D01*
X9766905Y-13055476D01*
X9747857Y-13045952D01*
X9738333Y-13036428D01*
X9728810Y-13017381D01*
X9719286Y-12979286D01*
X9719286Y-12931667D01*
X9728810Y-12893571D01*
X9738333Y-12874524D01*
X9747857Y-12865000D01*
X9766905Y-12855476D01*
X9957381Y-12855476D02*
X9976429Y-12855476D01*
X9995476Y-12865000D01*
X10005000Y-12874524D01*
X10014524Y-12893571D01*
X10024048Y-12931667D01*
X10024048Y-12979286D01*
X10014524Y-13017381D01*
X10005000Y-13036428D01*
X9995476Y-13045952D01*
X9976429Y-13055476D01*
X9957381Y-13055476D01*
X9938333Y-13045952D01*
X9928810Y-13036428D01*
X9919286Y-13017381D01*
X9909762Y-12979286D01*
X9909762Y-12931667D01*
X9919286Y-12893571D01*
X9928810Y-12874524D01*
X9938333Y-12865000D01*
X9957381Y-12855476D01*
X10109762Y-13055476D02*
X10109762Y-12922143D01*
X10109762Y-12941190D02*
X10119286Y-12931667D01*
X10138333Y-12922143D01*
X10166905Y-12922143D01*
X10185952Y-12931667D01*
X10195476Y-12950714D01*
X10195476Y-13055476D01*
X10195476Y-12950714D02*
X10205000Y-12931667D01*
X10224048Y-12922143D01*
X10252619Y-12922143D01*
X10271667Y-12931667D01*
X10281190Y-12950714D01*
X10281190Y-13055476D01*
X10376429Y-13055476D02*
X10376429Y-12922143D01*
X10376429Y-12941190D02*
X10385952Y-12931667D01*
X10405000Y-12922143D01*
X10433571Y-12922143D01*
X10452619Y-12931667D01*
X10462143Y-12950714D01*
X10462143Y-13055476D01*
X10462143Y-12950714D02*
X10471667Y-12931667D01*
X10490714Y-12922143D01*
X10519286Y-12922143D01*
X10538333Y-12931667D01*
X10547857Y-12950714D01*
X10547857Y-13055476D01*
X10938333Y-12845952D02*
X10766905Y-13103095D01*
X11195476Y-12855476D02*
X11214524Y-12855476D01*
X11233571Y-12865000D01*
X11243095Y-12874524D01*
X11252619Y-12893571D01*
X11262143Y-12931667D01*
X11262143Y-12979286D01*
X11252619Y-13017381D01*
X11243095Y-13036428D01*
X11233571Y-13045952D01*
X11214524Y-13055476D01*
X11195476Y-13055476D01*
X11176429Y-13045952D01*
X11166905Y-13036428D01*
X11157381Y-13017381D01*
X11147857Y-12979286D01*
X11147857Y-12931667D01*
X11157381Y-12893571D01*
X11166905Y-12874524D01*
X11176429Y-12865000D01*
X11195476Y-12855476D01*
X11347857Y-13036428D02*
X11357381Y-13045952D01*
X11347857Y-13055476D01*
X11338333Y-13045952D01*
X11347857Y-13036428D01*
X11347857Y-13055476D01*
X11547857Y-13055476D02*
X11433571Y-13055476D01*
X11490714Y-13055476D02*
X11490714Y-12855476D01*
X11471667Y-12884048D01*
X11452619Y-12903095D01*
X11433571Y-12912619D01*
X11719286Y-12922143D02*
X11719286Y-13055476D01*
X11671667Y-12845952D02*
X11624048Y-12988809D01*
X11747857Y-12988809D01*
X11919286Y-12855476D02*
X11824048Y-12855476D01*
X11814524Y-12950714D01*
X11824048Y-12941190D01*
X11843095Y-12931667D01*
X11890714Y-12931667D01*
X11909762Y-12941190D01*
X11919286Y-12950714D01*
X11928809Y-12969762D01*
X11928809Y-13017381D01*
X11919286Y-13036428D01*
X11909762Y-13045952D01*
X11890714Y-13055476D01*
X11843095Y-13055476D01*
X11824048Y-13045952D01*
X11814524Y-13036428D01*
X11995476Y-12855476D02*
X12128809Y-12855476D01*
X12043095Y-13055476D01*
X12195476Y-12855476D02*
X12195476Y-12893571D01*
X12271667Y-12855476D02*
X12271667Y-12893571D01*
X12566905Y-13131667D02*
X12557381Y-13122143D01*
X12538333Y-13093571D01*
X12528809Y-13074524D01*
X12519286Y-13045952D01*
X12509762Y-12998333D01*
X12509762Y-12960238D01*
X12519286Y-12912619D01*
X12528809Y-12884048D01*
X12538333Y-12865000D01*
X12557381Y-12836428D01*
X12566905Y-12826905D01*
X12728809Y-12922143D02*
X12728809Y-13055476D01*
X12681190Y-12845952D02*
X12633571Y-12988809D01*
X12757381Y-12988809D01*
X12985952Y-13055476D02*
X12985952Y-12855476D01*
X13071667Y-13055476D02*
X13071667Y-12950714D01*
X13062143Y-12931667D01*
X13043095Y-12922143D01*
X13014524Y-12922143D01*
X12995476Y-12931667D01*
X12985952Y-12941190D01*
X13195476Y-13055476D02*
X13176428Y-13045952D01*
X13166905Y-13036428D01*
X13157381Y-13017381D01*
X13157381Y-12960238D01*
X13166905Y-12941190D01*
X13176428Y-12931667D01*
X13195476Y-12922143D01*
X13224048Y-12922143D01*
X13243095Y-12931667D01*
X13252619Y-12941190D01*
X13262143Y-12960238D01*
X13262143Y-13017381D01*
X13252619Y-13036428D01*
X13243095Y-13045952D01*
X13224048Y-13055476D01*
X13195476Y-13055476D01*
X13376428Y-13055476D02*
X13357381Y-13045952D01*
X13347857Y-13026905D01*
X13347857Y-12855476D01*
X13528809Y-13045952D02*
X13509762Y-13055476D01*
X13471667Y-13055476D01*
X13452619Y-13045952D01*
X13443095Y-13026905D01*
X13443095Y-12950714D01*
X13452619Y-12931667D01*
X13471667Y-12922143D01*
X13509762Y-12922143D01*
X13528809Y-12931667D01*
X13538333Y-12950714D01*
X13538333Y-12969762D01*
X13443095Y-12988809D01*
X13614524Y-13045952D02*
X13633571Y-13055476D01*
X13671667Y-13055476D01*
X13690714Y-13045952D01*
X13700238Y-13026905D01*
X13700238Y-13017381D01*
X13690714Y-12998333D01*
X13671667Y-12988809D01*
X13643095Y-12988809D01*
X13624048Y-12979286D01*
X13614524Y-12960238D01*
X13614524Y-12950714D01*
X13624048Y-12931667D01*
X13643095Y-12922143D01*
X13671667Y-12922143D01*
X13690714Y-12931667D01*
X13766905Y-13131667D02*
X13776428Y-13122143D01*
X13795476Y-13093571D01*
X13805000Y-13074524D01*
X13814524Y-13045952D01*
X13824048Y-12998333D01*
X13824048Y-12960238D01*
X13814524Y-12912619D01*
X13805000Y-12884048D01*
X13795476Y-12865000D01*
X13776428Y-12836428D01*
X13766905Y-12826905D01*
M02*
