%TF.GenerationSoftware,KiCad,Pcbnew,6.0.11-2627ca5db0~126~ubuntu20.04.1*%
%TF.CreationDate,2024-06-24T23:06:08+02:00*%
%TF.ProjectId,IRstepper,49527374-6570-4706-9572-2e6b69636164,rev?*%
%TF.SameCoordinates,Original*%
%TF.FileFunction,Copper,L2,Bot*%
%TF.FilePolarity,Positive*%
%FSLAX46Y46*%
G04 Gerber Fmt 4.6, Leading zero omitted, Abs format (unit mm)*
G04 Created by KiCad (PCBNEW 6.0.11-2627ca5db0~126~ubuntu20.04.1) date 2024-06-24 23:06:08*
%MOMM*%
%LPD*%
G01*
G04 APERTURE LIST*
G04 Aperture macros list*
%AMRoundRect*
0 Rectangle with rounded corners*
0 $1 Rounding radius*
0 $2 $3 $4 $5 $6 $7 $8 $9 X,Y pos of 4 corners*
0 Add a 4 corners polygon primitive as box body*
4,1,4,$2,$3,$4,$5,$6,$7,$8,$9,$2,$3,0*
0 Add four circle primitives for the rounded corners*
1,1,$1+$1,$2,$3*
1,1,$1+$1,$4,$5*
1,1,$1+$1,$6,$7*
1,1,$1+$1,$8,$9*
0 Add four rect primitives between the rounded corners*
20,1,$1+$1,$2,$3,$4,$5,0*
20,1,$1+$1,$4,$5,$6,$7,0*
20,1,$1+$1,$6,$7,$8,$9,0*
20,1,$1+$1,$8,$9,$2,$3,0*%
G04 Aperture macros list end*
%TA.AperFunction,ComponentPad*%
%ADD10R,1.800000X1.800000*%
%TD*%
%TA.AperFunction,ComponentPad*%
%ADD11O,1.800000X1.800000*%
%TD*%
%TA.AperFunction,ComponentPad*%
%ADD12R,1.700000X1.700000*%
%TD*%
%TA.AperFunction,ComponentPad*%
%ADD13O,1.700000X1.700000*%
%TD*%
%TA.AperFunction,ConnectorPad*%
%ADD14C,7.400000*%
%TD*%
%TA.AperFunction,ComponentPad*%
%ADD15C,4.100000*%
%TD*%
%TA.AperFunction,ComponentPad*%
%ADD16R,2.600000X2.600000*%
%TD*%
%TA.AperFunction,ComponentPad*%
%ADD17C,2.600000*%
%TD*%
%TA.AperFunction,ComponentPad*%
%ADD18O,2.199640X1.501140*%
%TD*%
%TA.AperFunction,ComponentPad*%
%ADD19O,1.501140X2.199640*%
%TD*%
%TA.AperFunction,ComponentPad*%
%ADD20R,3.500000X3.500000*%
%TD*%
%TA.AperFunction,ComponentPad*%
%ADD21RoundRect,0.750000X-0.750000X-1.000000X0.750000X-1.000000X0.750000X1.000000X-0.750000X1.000000X0*%
%TD*%
%TA.AperFunction,ComponentPad*%
%ADD22RoundRect,0.875000X-0.875000X-0.875000X0.875000X-0.875000X0.875000X0.875000X-0.875000X0.875000X0*%
%TD*%
%TA.AperFunction,ComponentPad*%
%ADD23R,1.600000X1.600000*%
%TD*%
%TA.AperFunction,ComponentPad*%
%ADD24O,1.600000X1.600000*%
%TD*%
%TA.AperFunction,ComponentPad*%
%ADD25C,1.600000*%
%TD*%
%TA.AperFunction,ComponentPad*%
%ADD26C,1.800000*%
%TD*%
%TA.AperFunction,Conductor*%
%ADD27C,0.250000*%
%TD*%
%TA.AperFunction,Conductor*%
%ADD28C,0.600000*%
%TD*%
G04 APERTURE END LIST*
D10*
%TO.P,D3,2,A*%
%TO.N,+9V*%
X108712000Y-66802000D03*
D11*
%TO.P,D3,1,K*%
%TO.N,Net-(D3-Pad1)*%
X108712000Y-59182000D03*
%TD*%
D12*
%TO.P,J1,1,Pin_1*%
%TO.N,GND*%
X91953000Y-107950000D03*
D13*
%TO.P,J1,2,Pin_2*%
%TO.N,+5V*%
X94493000Y-107950000D03*
%TO.P,J1,3,Pin_3*%
%TO.N,Net-(IC1-Pad9)*%
X97033000Y-107950000D03*
%TO.P,J1,4,Pin_4*%
%TO.N,Net-(IC1-Pad5)*%
X99573000Y-107950000D03*
%TO.P,J1,5,Pin_5*%
%TO.N,Net-(IC1-Pad6)*%
X102113000Y-107950000D03*
%TD*%
D14*
%TO.P,H3,1*%
%TO.N,N/C*%
X130556000Y-20320000D03*
D15*
X130556000Y-20320000D03*
%TD*%
%TO.P,H4,1*%
%TO.N,N/C*%
X130302000Y-98552000D03*
D14*
X130302000Y-98552000D03*
%TD*%
D15*
%TO.P,H2,1*%
%TO.N,N/C*%
X94488000Y-20574000D03*
D14*
X94488000Y-20574000D03*
%TD*%
D12*
%TO.P,J5,1,Pin_1*%
%TO.N,Net-(A1-Pad3)*%
X121930000Y-70612000D03*
D13*
%TO.P,J5,2,Pin_2*%
%TO.N,Net-(A1-Pad4)*%
X124470000Y-70612000D03*
%TO.P,J5,3,Pin_3*%
%TO.N,Net-(A1-Pad5)*%
X127010000Y-70612000D03*
%TO.P,J5,4,Pin_4*%
%TO.N,Net-(A1-Pad6)*%
X129550000Y-70612000D03*
%TD*%
D10*
%TO.P,D1,1,K*%
%TO.N,Net-(D1-Pad1)*%
X120396000Y-66802000D03*
D11*
%TO.P,D1,2,A*%
%TO.N,+12V*%
X120396000Y-59182000D03*
%TD*%
D12*
%TO.P,J3,1,Pin_1*%
%TO.N,+9V*%
X113279000Y-65024000D03*
D13*
%TO.P,J3,2,Pin_2*%
%TO.N,+12V*%
X115819000Y-65024000D03*
%TD*%
D16*
%TO.P,J2,1,Pin_1*%
%TO.N,GND*%
X129520000Y-65298000D03*
D17*
%TO.P,J2,2,Pin_2*%
%TO.N,Net-(D1-Pad1)*%
X129520000Y-60298000D03*
%TD*%
D15*
%TO.P,H1,1*%
%TO.N,N/C*%
X103378000Y-97790000D03*
D14*
X103378000Y-97790000D03*
%TD*%
D12*
%TO.P,J10,1,Pin_1*%
%TO.N,+5V*%
X92202000Y-92720000D03*
D13*
%TO.P,J10,2,Pin_2*%
%TO.N,RST*%
X92202000Y-95260000D03*
%TO.P,J10,3,Pin_3*%
%TO.N,GND*%
X92202000Y-97800000D03*
%TO.P,J10,4,Pin_4*%
%TO.N,+9V*%
X92202000Y-100340000D03*
%TD*%
D18*
%TO.P,IC1,1,(PCINT17/TXD)PD1/1*%
%TO.N,Net-(IC1-Pad1)*%
X110744000Y-98552000D03*
%TO.P,IC1,2,(PCINT16/RXD)PD0/0*%
%TO.N,Net-(IC1-Pad2)*%
X110744000Y-96012000D03*
%TO.P,IC1,3,(PCINT14/~{RESET})PC6*%
%TO.N,unconnected-(IC1-Pad3)*%
X110744000Y-93472000D03*
%TO.P,IC1,4,GND*%
%TO.N,GND*%
X110744000Y-90932000D03*
%TO.P,IC1,5,(PCINT18/INT0)PD2/2*%
%TO.N,Net-(IC1-Pad5)*%
X110744000Y-88392000D03*
%TO.P,IC1,6,(PCINT19/OC2B/INT1/PWM)PD3/3*%
%TO.N,Net-(IC1-Pad6)*%
X110744000Y-85852000D03*
%TO.P,IC1,7,(PCINT20/XCK/T0)PD4/4*%
%TO.N,Net-(IC1-Pad7)*%
X110744000Y-83312000D03*
%TO.P,IC1,8,(PCINT21/OC0B/T1/PWM)PD5/5*%
%TO.N,Net-(IC1-Pad8)*%
X110744000Y-80772000D03*
%TO.P,IC1,9,(PCINT22/OC0A/AIN0/PWM)PD6/6*%
%TO.N,Net-(IC1-Pad9)*%
X110744000Y-78232000D03*
%TO.P,IC1,10,(PCINT23/AIN1)PD7/7*%
%TO.N,Net-(IC1-Pad10)*%
X110744000Y-75692000D03*
%TO.P,IC1,11,(PCINT0/CLKO/ICP1)PB0/8*%
%TO.N,ENABLE*%
X110744000Y-73152000D03*
%TO.P,IC1,12,(PCINT1/OC1A/PWM)PB1/9*%
%TO.N,Net-(IC1-Pad12)*%
X110744000Y-70612000D03*
%TO.P,IC1,13,(PCINT2/OC1B/~{SS}/PWM)PB2/10*%
%TO.N,DIR*%
X95504000Y-70612000D03*
%TO.P,IC1,14,(PCINT3/OC2A/MOSI/PWM)PB3/11*%
%TO.N,STEP*%
X95504000Y-73152000D03*
%TO.P,IC1,15,(PCINT4/MISO)PB4/12*%
%TO.N,Net-(IC1-Pad15)*%
X95504000Y-75692000D03*
%TO.P,IC1,16,(PCINT5/SCK)PB5/13*%
%TO.N,Net-(IC1-Pad16)*%
X95504000Y-78232000D03*
%TO.P,IC1,17,(PCINT8/ADC0)PC0/14/A0*%
%TO.N,Net-(IC1-Pad17)*%
X95504000Y-80772000D03*
%TO.P,IC1,18,(PCINT9/ADC1)PC1/15/A1*%
%TO.N,Net-(IC1-Pad18)*%
X95504000Y-83312000D03*
%TO.P,IC1,19,(PCINT10/ADC2)PC2/16/A2*%
%TO.N,Net-(IC1-Pad19)*%
X95504000Y-85852000D03*
%TO.P,IC1,20,(PCINT11/ADC3)PC3/17/A3*%
%TO.N,Net-(IC1-Pad20)*%
X95504000Y-88392000D03*
%TO.P,IC1,21,VCC*%
%TO.N,+5V*%
X95504000Y-90932000D03*
%TO.P,IC1,22,(PCINT14/~{RESET})PC6*%
%TO.N,RST*%
X95504000Y-93472000D03*
%TO.P,IC1,23,GND*%
%TO.N,GND*%
X95504000Y-96012000D03*
%TO.P,IC1,24,RAW*%
%TO.N,+9V*%
X95504000Y-98552000D03*
%TO.P,IC1,25,(PCINT12/SDA/ADC4)PC4/18/A4*%
%TO.N,Net-(IC1-Pad25)*%
X98044000Y-87122000D03*
%TO.P,IC1,26,(PCINT13/SCL/ADC5)PC5/19/A5*%
%TO.N,Net-(IC1-Pad26)*%
X98044000Y-89662000D03*
D19*
%TO.P,IC1,27,ADC6/A6*%
%TO.N,unconnected-(IC1-Pad27)*%
X98044000Y-70612000D03*
D18*
X98044000Y-76962000D03*
D19*
%TO.P,IC1,28,ADC7/A7*%
%TO.N,unconnected-(IC1-Pad28)*%
X100584000Y-70612000D03*
D18*
X98044000Y-79502000D03*
D19*
%TO.P,IC1,29,GND*%
%TO.N,GND*%
X103124000Y-70612000D03*
%TD*%
D12*
%TO.P,J4,1,Pin_1*%
%TO.N,Net-(IC1-Pad10)*%
X111775000Y-107442000D03*
D13*
%TO.P,J4,2,Pin_2*%
%TO.N,GND*%
X114315000Y-107442000D03*
%TO.P,J4,3,Pin_3*%
%TO.N,+5V*%
X116855000Y-107442000D03*
%TD*%
D12*
%TO.P,J7,1,Pin_1*%
%TO.N,Net-(IC1-Pad7)*%
X132857000Y-105395000D03*
D13*
%TO.P,J7,2,Pin_2*%
%TO.N,Net-(IC1-Pad8)*%
X132857000Y-107935000D03*
%TO.P,J7,3,Pin_3*%
%TO.N,GND*%
X130317000Y-105395000D03*
%TO.P,J7,4,Pin_4*%
%TO.N,+5V*%
X130317000Y-107935000D03*
%TD*%
D20*
%TO.P,J6,1,In*%
%TO.N,Net-(D3-Pad1)*%
X104044000Y-62484000D03*
D21*
%TO.P,J6,2,Ext*%
%TO.N,GND*%
X98044000Y-62484000D03*
D22*
%TO.P,J6,3*%
X101044000Y-67184000D03*
%TD*%
D23*
%TO.P,A1,1,GND*%
%TO.N,GND*%
X119136000Y-74422000D03*
D24*
%TO.P,A1,2,VDD*%
%TO.N,+5V*%
X119136000Y-76962000D03*
%TO.P,A1,3,1B*%
%TO.N,Net-(A1-Pad3)*%
X119136000Y-79502000D03*
%TO.P,A1,4,1A*%
%TO.N,Net-(A1-Pad4)*%
X119136000Y-82042000D03*
%TO.P,A1,5,2A*%
%TO.N,Net-(A1-Pad5)*%
X119136000Y-84582000D03*
%TO.P,A1,6,2B*%
%TO.N,Net-(A1-Pad6)*%
X119136000Y-87122000D03*
%TO.P,A1,7,GND*%
%TO.N,GND*%
X119136000Y-89662000D03*
%TO.P,A1,8,VMOT*%
%TO.N,+12V*%
X119136000Y-92202000D03*
%TO.P,A1,9,~{ENABLE}*%
%TO.N,ENABLE*%
X131836000Y-92202000D03*
%TO.P,A1,10,MS1*%
%TO.N,Net-(A1-Pad10)*%
X131836000Y-89662000D03*
%TO.P,A1,11,MS2*%
%TO.N,Net-(A1-Pad11)*%
X131836000Y-87122000D03*
%TO.P,A1,12,MS3*%
%TO.N,Net-(A1-Pad12)*%
X131836000Y-84582000D03*
%TO.P,A1,13,~{RESET}*%
%TO.N,Net-(A1-Pad13)*%
X131836000Y-82042000D03*
%TO.P,A1,14,~{SLEEP}*%
X131836000Y-79502000D03*
%TO.P,A1,15,STEP*%
%TO.N,STEP*%
X131836000Y-76962000D03*
%TO.P,A1,16,DIR*%
%TO.N,DIR*%
X131836000Y-74422000D03*
%TD*%
D12*
%TO.P,J9,1,Pin_1*%
%TO.N,Net-(IC1-Pad17)*%
X92202000Y-76200000D03*
D13*
%TO.P,J9,2,Pin_2*%
%TO.N,Net-(IC1-Pad18)*%
X92202000Y-78740000D03*
%TO.P,J9,3,Pin_3*%
%TO.N,Net-(IC1-Pad19)*%
X92202000Y-81280000D03*
%TO.P,J9,4,Pin_4*%
%TO.N,Net-(IC1-Pad20)*%
X92202000Y-83820000D03*
%TO.P,J9,5,Pin_5*%
%TO.N,Net-(IC1-Pad25)*%
X92202000Y-86360000D03*
%TO.P,J9,6,Pin_6*%
%TO.N,Net-(IC1-Pad26)*%
X92202000Y-88900000D03*
%TD*%
D12*
%TO.P,J8,1,Pin_1*%
%TO.N,+5V*%
X122951000Y-77729000D03*
D13*
%TO.P,J8,2,Pin_2*%
%TO.N,Net-(A1-Pad10)*%
X122951000Y-75189000D03*
%TO.P,J8,3,Pin_3*%
%TO.N,+5V*%
X125491000Y-77729000D03*
%TO.P,J8,4,Pin_4*%
%TO.N,Net-(A1-Pad11)*%
X125491000Y-75189000D03*
%TO.P,J8,5,Pin_5*%
%TO.N,+5V*%
X128031000Y-77729000D03*
%TO.P,J8,6,Pin_6*%
%TO.N,Net-(A1-Pad12)*%
X128031000Y-75189000D03*
%TD*%
D25*
%TO.P,R1,1*%
%TO.N,Net-(IC1-Pad16)*%
X103378000Y-78740000D03*
D24*
%TO.P,R1,2*%
%TO.N,Net-(D2-Pad2)*%
X103378000Y-86360000D03*
%TD*%
D23*
%TO.P,C1,1*%
%TO.N,+12V*%
X122810700Y-98298000D03*
D25*
%TO.P,C1,2*%
%TO.N,GND*%
X119310700Y-98298000D03*
%TD*%
D10*
%TO.P,D2,1,K*%
%TO.N,GND*%
X105400000Y-107442000D03*
D26*
%TO.P,D2,2,A*%
%TO.N,Net-(D2-Pad2)*%
X107940000Y-107442000D03*
%TD*%
D27*
%TO.N,Net-(IC1-Pad26)*%
X94139300Y-89662000D02*
X98044000Y-89662000D01*
X93377300Y-88900000D02*
X94139300Y-89662000D01*
X92202000Y-88900000D02*
X93377300Y-88900000D01*
%TO.N,Net-(IC1-Pad25)*%
X94139300Y-87122000D02*
X98044000Y-87122000D01*
X93377300Y-86360000D02*
X94139300Y-87122000D01*
X92202000Y-86360000D02*
X93377300Y-86360000D01*
%TO.N,RST*%
X94089400Y-94547900D02*
X93377300Y-95260000D01*
X95504000Y-94547900D02*
X94089400Y-94547900D01*
X95504000Y-93472000D02*
X95504000Y-94547900D01*
X92202000Y-95260000D02*
X93377300Y-95260000D01*
%TO.N,Net-(IC1-Pad19)*%
X94890200Y-84776100D02*
X95504000Y-84776100D01*
X92569400Y-82455300D02*
X94890200Y-84776100D01*
X92202000Y-82455300D02*
X92569400Y-82455300D01*
X92202000Y-81280000D02*
X92202000Y-82455300D01*
X95504000Y-85852000D02*
X95504000Y-84776100D01*
%TO.N,Net-(IC1-Pad18)*%
X94890200Y-82236100D02*
X95504000Y-82236100D01*
X92569400Y-79915300D02*
X94890200Y-82236100D01*
X92202000Y-79915300D02*
X92569400Y-79915300D01*
X92202000Y-78740000D02*
X92202000Y-79915300D01*
X95504000Y-83312000D02*
X95504000Y-82236100D01*
%TO.N,Net-(IC1-Pad17)*%
X94890200Y-79696100D02*
X95504000Y-79696100D01*
X92569400Y-77375300D02*
X94890200Y-79696100D01*
X92202000Y-77375300D02*
X92569400Y-77375300D01*
X92202000Y-76200000D02*
X92202000Y-77375300D01*
X95504000Y-80772000D02*
X95504000Y-79696100D01*
%TO.N,Net-(IC1-Pad16)*%
X102870000Y-78232000D02*
X95504000Y-78232000D01*
X103378000Y-78740000D02*
X102870000Y-78232000D01*
%TO.N,Net-(IC1-Pad7)*%
X111819900Y-84387900D02*
X110744000Y-84387900D01*
X115824000Y-88392000D02*
X111819900Y-84387900D01*
X125839800Y-88392000D02*
X115824000Y-88392000D01*
X134374300Y-96926500D02*
X125839800Y-88392000D01*
X134374300Y-102702400D02*
X134374300Y-96926500D01*
X132857000Y-104219700D02*
X134374300Y-102702400D01*
X132857000Y-105395000D02*
X132857000Y-104219700D01*
X110744000Y-83312000D02*
X110744000Y-84387900D01*
%TO.N,Net-(IC1-Pad5)*%
X100087200Y-106774700D02*
X99573000Y-106774700D01*
X108590900Y-98271000D02*
X100087200Y-106774700D01*
X108590900Y-91083000D02*
X108590900Y-98271000D01*
X110206000Y-89467900D02*
X108590900Y-91083000D01*
X110744000Y-89467900D02*
X110206000Y-89467900D01*
X110744000Y-88392000D02*
X110744000Y-89467900D01*
X99573000Y-107950000D02*
X99573000Y-106774700D01*
D28*
%TO.N,+9V*%
X111890300Y-65024000D02*
X110112300Y-66802000D01*
X113279000Y-65024000D02*
X111890300Y-65024000D01*
X108712000Y-66802000D02*
X110112300Y-66802000D01*
X94089400Y-99802900D02*
X93552300Y-100340000D01*
X95504000Y-99802900D02*
X94089400Y-99802900D01*
X92202000Y-100340000D02*
X93552300Y-100340000D01*
X95504000Y-98552000D02*
X95504000Y-99177400D01*
X95504000Y-99177400D02*
X95504000Y-99802900D01*
X108712000Y-85969400D02*
X108712000Y-66802000D01*
X95504000Y-99177400D02*
X108712000Y-85969400D01*
%TO.N,Net-(D3-Pad1)*%
X108196000Y-60582300D02*
X108712000Y-60582300D01*
X106294300Y-62484000D02*
X108196000Y-60582300D01*
X104044000Y-62484000D02*
X106294300Y-62484000D01*
X108712000Y-59182000D02*
X108712000Y-60582300D01*
%TO.N,Net-(D1-Pad1)*%
X128300300Y-60298000D02*
X121796300Y-66802000D01*
X129520000Y-60298000D02*
X128300300Y-60298000D01*
X120396000Y-66802000D02*
X121796300Y-66802000D01*
D27*
%TO.N,STEP*%
X131836000Y-76962000D02*
X131836000Y-75836700D01*
X131554700Y-75836700D02*
X131836000Y-75836700D01*
X130710600Y-74992600D02*
X131554700Y-75836700D01*
X130710600Y-71118700D02*
X130710600Y-74992600D01*
X130773200Y-71056100D02*
X130710600Y-71118700D01*
X130773200Y-70123600D02*
X130773200Y-71056100D01*
X128956300Y-68306700D02*
X130773200Y-70123600D01*
X117422400Y-68306700D02*
X128956300Y-68306700D01*
X114639300Y-65523600D02*
X117422400Y-68306700D01*
X114639300Y-64171300D02*
X114639300Y-65523600D01*
X114307500Y-63839500D02*
X114639300Y-64171300D01*
X109359800Y-63839500D02*
X114307500Y-63839500D01*
X105907700Y-67291600D02*
X109359800Y-63839500D01*
X105907700Y-69715700D02*
X105907700Y-67291600D01*
X102471400Y-73152000D02*
X105907700Y-69715700D01*
X95504000Y-73152000D02*
X102471400Y-73152000D01*
%TO.N,Net-(A1-Pad12)*%
X131554600Y-83456700D02*
X131836000Y-83456700D01*
X130710700Y-82612800D02*
X131554600Y-83456700D01*
X130710700Y-78676600D02*
X130710700Y-82612800D01*
X128398400Y-76364300D02*
X130710700Y-78676600D01*
X128031000Y-76364300D02*
X128398400Y-76364300D01*
X128031000Y-75189000D02*
X128031000Y-76364300D01*
X131836000Y-84582000D02*
X131836000Y-83456700D01*
%TO.N,Net-(A1-Pad11)*%
X131554700Y-85996700D02*
X131836000Y-85996700D01*
X124297000Y-78739000D02*
X131554700Y-85996700D01*
X124297000Y-77191000D02*
X124297000Y-78739000D01*
X125123700Y-76364300D02*
X124297000Y-77191000D01*
X125491000Y-76364300D02*
X125123700Y-76364300D01*
X125491000Y-75189000D02*
X125491000Y-76364300D01*
X131836000Y-87122000D02*
X131836000Y-85996700D01*
D28*
%TO.N,+12V*%
X122631400Y-96997700D02*
X119136000Y-93502300D01*
X122810700Y-96997700D02*
X122631400Y-96997700D01*
X119136000Y-92202000D02*
X119136000Y-93502300D01*
X122810700Y-98298000D02*
X122810700Y-96997700D01*
X118995700Y-60497000D02*
X118995700Y-59182000D01*
X115819000Y-63673700D02*
X118995700Y-60497000D01*
X115819000Y-65024000D02*
X115819000Y-63673700D01*
X120396000Y-59182000D02*
X118995700Y-59182000D01*
%TO.N,Net-(A1-Pad6)*%
X120735500Y-85522500D02*
X119136000Y-87122000D01*
X120735500Y-75472600D02*
X120735500Y-85522500D01*
X123156600Y-73051500D02*
X120735500Y-75472600D01*
X127110500Y-73051500D02*
X123156600Y-73051500D01*
X129550000Y-70612000D02*
X127110500Y-73051500D01*
%TO.N,Net-(A1-Pad5)*%
X117020000Y-82466000D02*
X119136000Y-84582000D01*
X117020000Y-73017500D02*
X117020000Y-82466000D01*
X120780900Y-69256600D02*
X117020000Y-73017500D01*
X125654600Y-69256600D02*
X120780900Y-69256600D01*
X127010000Y-70612000D02*
X125654600Y-69256600D01*
%TO.N,Net-(A1-Pad3)*%
X117820400Y-73371300D02*
X120579700Y-70612000D01*
X117820400Y-78186400D02*
X117820400Y-73371300D01*
X119136000Y-79502000D02*
X117820400Y-78186400D01*
X121930000Y-70612000D02*
X120579700Y-70612000D01*
%TO.N,+5V*%
X128031000Y-77729000D02*
X125491000Y-77729000D01*
X93466100Y-91369700D02*
X92202000Y-91369700D01*
X93903800Y-90932000D02*
X93466100Y-91369700D01*
X95504000Y-90932000D02*
X93903800Y-90932000D01*
X92202000Y-92720000D02*
X92202000Y-91369700D01*
X130317000Y-107935000D02*
X128966700Y-107935000D01*
X116855000Y-107935000D02*
X128966700Y-107935000D01*
X116855000Y-107442000D02*
X116855000Y-107935000D01*
X95883900Y-109340900D02*
X94493000Y-107950000D01*
X115449100Y-109340900D02*
X95883900Y-109340900D01*
X116855000Y-107935000D02*
X115449100Y-109340900D01*
D27*
%TO.N,GND*%
X119136000Y-89662000D02*
X119136000Y-90787300D01*
X130317000Y-105395000D02*
X129141700Y-105395000D01*
X101044000Y-65484000D02*
X101044000Y-67184000D01*
X98044000Y-62484000D02*
X101044000Y-65484000D01*
X94078800Y-97098500D02*
X94078800Y-96012000D01*
X93377300Y-97800000D02*
X94078800Y-97098500D01*
X92202000Y-97800000D02*
X93377300Y-97800000D01*
X95504000Y-96012000D02*
X94078800Y-96012000D01*
X113139700Y-108250000D02*
X113139700Y-107442000D01*
X112674200Y-108715500D02*
X113139700Y-108250000D01*
X107439300Y-108715500D02*
X112674200Y-108715500D01*
X106625300Y-107901500D02*
X107439300Y-108715500D01*
X106625300Y-107442000D02*
X106625300Y-107901500D01*
X105400000Y-107442000D02*
X106625300Y-107442000D01*
X114315000Y-107442000D02*
X113139700Y-107442000D01*
X119310700Y-98298000D02*
X119310700Y-101625000D01*
X125371700Y-101625000D02*
X119310700Y-101625000D01*
X129141700Y-105395000D02*
X125371700Y-101625000D01*
X114669000Y-106266700D02*
X114315000Y-106266700D01*
X119310700Y-101625000D02*
X114669000Y-106266700D01*
X114315000Y-107442000D02*
X114315000Y-106266700D01*
X110744000Y-90932000D02*
X110744000Y-92007900D01*
X118010700Y-92007900D02*
X110744000Y-92007900D01*
X118010700Y-96998000D02*
X118010700Y-92007900D01*
X119310700Y-98298000D02*
X118010700Y-96998000D01*
X118854600Y-90787300D02*
X119136000Y-90787300D01*
X118010700Y-91631200D02*
X118854600Y-90787300D01*
X118010700Y-92007900D02*
X118010700Y-91631200D01*
%TD*%
M02*
