%TF.GenerationSoftware,KiCad,Pcbnew,6.0.11-2627ca5db0~126~ubuntu20.04.1*%
%TF.CreationDate,2024-06-24T23:06:08+02:00*%
%TF.ProjectId,IRstepper,49527374-6570-4706-9572-2e6b69636164,rev?*%
%TF.SameCoordinates,Original*%
%TF.FileFunction,Copper,L1,Top*%
%TF.FilePolarity,Positive*%
%FSLAX46Y46*%
G04 Gerber Fmt 4.6, Leading zero omitted, Abs format (unit mm)*
G04 Created by KiCad (PCBNEW 6.0.11-2627ca5db0~126~ubuntu20.04.1) date 2024-06-24 23:06:08*
%MOMM*%
%LPD*%
G01*
G04 APERTURE LIST*
G04 Aperture macros list*
%AMRoundRect*
0 Rectangle with rounded corners*
0 $1 Rounding radius*
0 $2 $3 $4 $5 $6 $7 $8 $9 X,Y pos of 4 corners*
0 Add a 4 corners polygon primitive as box body*
4,1,4,$2,$3,$4,$5,$6,$7,$8,$9,$2,$3,0*
0 Add four circle primitives for the rounded corners*
1,1,$1+$1,$2,$3*
1,1,$1+$1,$4,$5*
1,1,$1+$1,$6,$7*
1,1,$1+$1,$8,$9*
0 Add four rect primitives between the rounded corners*
20,1,$1+$1,$2,$3,$4,$5,0*
20,1,$1+$1,$4,$5,$6,$7,0*
20,1,$1+$1,$6,$7,$8,$9,0*
20,1,$1+$1,$8,$9,$2,$3,0*%
G04 Aperture macros list end*
%TA.AperFunction,ComponentPad*%
%ADD10R,1.800000X1.800000*%
%TD*%
%TA.AperFunction,ComponentPad*%
%ADD11O,1.800000X1.800000*%
%TD*%
%TA.AperFunction,ComponentPad*%
%ADD12R,1.700000X1.700000*%
%TD*%
%TA.AperFunction,ComponentPad*%
%ADD13O,1.700000X1.700000*%
%TD*%
%TA.AperFunction,SMDPad,CuDef*%
%ADD14C,1.500000*%
%TD*%
%TA.AperFunction,ConnectorPad*%
%ADD15C,7.400000*%
%TD*%
%TA.AperFunction,ComponentPad*%
%ADD16C,4.100000*%
%TD*%
%TA.AperFunction,ComponentPad*%
%ADD17R,2.600000X2.600000*%
%TD*%
%TA.AperFunction,ComponentPad*%
%ADD18C,2.600000*%
%TD*%
%TA.AperFunction,ComponentPad*%
%ADD19O,2.199640X1.501140*%
%TD*%
%TA.AperFunction,ComponentPad*%
%ADD20O,1.501140X2.199640*%
%TD*%
%TA.AperFunction,ComponentPad*%
%ADD21R,3.500000X3.500000*%
%TD*%
%TA.AperFunction,ComponentPad*%
%ADD22RoundRect,0.750000X-0.750000X-1.000000X0.750000X-1.000000X0.750000X1.000000X-0.750000X1.000000X0*%
%TD*%
%TA.AperFunction,ComponentPad*%
%ADD23RoundRect,0.875000X-0.875000X-0.875000X0.875000X-0.875000X0.875000X0.875000X-0.875000X0.875000X0*%
%TD*%
%TA.AperFunction,ComponentPad*%
%ADD24R,1.600000X1.600000*%
%TD*%
%TA.AperFunction,ComponentPad*%
%ADD25O,1.600000X1.600000*%
%TD*%
%TA.AperFunction,ComponentPad*%
%ADD26C,1.600000*%
%TD*%
%TA.AperFunction,ComponentPad*%
%ADD27C,1.800000*%
%TD*%
%TA.AperFunction,Conductor*%
%ADD28C,0.250000*%
%TD*%
%TA.AperFunction,Conductor*%
%ADD29C,0.600000*%
%TD*%
G04 APERTURE END LIST*
D10*
%TO.P,D3,2,A*%
%TO.N,+9V*%
X108712000Y-66802000D03*
D11*
%TO.P,D3,1,K*%
%TO.N,Net-(D3-Pad1)*%
X108712000Y-59182000D03*
%TD*%
D12*
%TO.P,J1,1,Pin_1*%
%TO.N,GND*%
X91953000Y-107950000D03*
D13*
%TO.P,J1,2,Pin_2*%
%TO.N,+5V*%
X94493000Y-107950000D03*
%TO.P,J1,3,Pin_3*%
%TO.N,Net-(IC1-Pad9)*%
X97033000Y-107950000D03*
%TO.P,J1,4,Pin_4*%
%TO.N,Net-(IC1-Pad5)*%
X99573000Y-107950000D03*
%TO.P,J1,5,Pin_5*%
%TO.N,Net-(IC1-Pad6)*%
X102113000Y-107950000D03*
%TD*%
D14*
%TO.P,TP2,1,1*%
%TO.N,Net-(IC1-Pad2)*%
X114808000Y-96266000D03*
%TD*%
D15*
%TO.P,H3,1*%
%TO.N,N/C*%
X130556000Y-20320000D03*
D16*
X130556000Y-20320000D03*
%TD*%
D15*
%TO.P,H4,1*%
%TO.N,N/C*%
X130302000Y-98552000D03*
D16*
X130302000Y-98552000D03*
%TD*%
D15*
%TO.P,H2,1*%
%TO.N,N/C*%
X94488000Y-20574000D03*
D16*
X94488000Y-20574000D03*
%TD*%
D12*
%TO.P,J5,1,Pin_1*%
%TO.N,Net-(A1-Pad3)*%
X121930000Y-70612000D03*
D13*
%TO.P,J5,2,Pin_2*%
%TO.N,Net-(A1-Pad4)*%
X124470000Y-70612000D03*
%TO.P,J5,3,Pin_3*%
%TO.N,Net-(A1-Pad5)*%
X127010000Y-70612000D03*
%TO.P,J5,4,Pin_4*%
%TO.N,Net-(A1-Pad6)*%
X129550000Y-70612000D03*
%TD*%
D10*
%TO.P,D1,1,K*%
%TO.N,Net-(D1-Pad1)*%
X120396000Y-66802000D03*
D11*
%TO.P,D1,2,A*%
%TO.N,+12V*%
X120396000Y-59182000D03*
%TD*%
D12*
%TO.P,J3,1,Pin_1*%
%TO.N,+9V*%
X113279000Y-65024000D03*
D13*
%TO.P,J3,2,Pin_2*%
%TO.N,+12V*%
X115819000Y-65024000D03*
%TD*%
D17*
%TO.P,J2,1,Pin_1*%
%TO.N,GND*%
X129520000Y-65298000D03*
D18*
%TO.P,J2,2,Pin_2*%
%TO.N,Net-(D1-Pad1)*%
X129520000Y-60298000D03*
%TD*%
D15*
%TO.P,H1,1*%
%TO.N,N/C*%
X103378000Y-97790000D03*
D16*
X103378000Y-97790000D03*
%TD*%
D12*
%TO.P,J10,1,Pin_1*%
%TO.N,+5V*%
X92202000Y-92720000D03*
D13*
%TO.P,J10,2,Pin_2*%
%TO.N,RST*%
X92202000Y-95260000D03*
%TO.P,J10,3,Pin_3*%
%TO.N,GND*%
X92202000Y-97800000D03*
%TO.P,J10,4,Pin_4*%
%TO.N,+9V*%
X92202000Y-100340000D03*
%TD*%
D19*
%TO.P,IC1,1,(PCINT17/TXD)PD1/1*%
%TO.N,Net-(IC1-Pad1)*%
X110744000Y-98552000D03*
%TO.P,IC1,2,(PCINT16/RXD)PD0/0*%
%TO.N,Net-(IC1-Pad2)*%
X110744000Y-96012000D03*
%TO.P,IC1,3,(PCINT14/~{RESET})PC6*%
%TO.N,unconnected-(IC1-Pad3)*%
X110744000Y-93472000D03*
%TO.P,IC1,4,GND*%
%TO.N,GND*%
X110744000Y-90932000D03*
%TO.P,IC1,5,(PCINT18/INT0)PD2/2*%
%TO.N,Net-(IC1-Pad5)*%
X110744000Y-88392000D03*
%TO.P,IC1,6,(PCINT19/OC2B/INT1/PWM)PD3/3*%
%TO.N,Net-(IC1-Pad6)*%
X110744000Y-85852000D03*
%TO.P,IC1,7,(PCINT20/XCK/T0)PD4/4*%
%TO.N,Net-(IC1-Pad7)*%
X110744000Y-83312000D03*
%TO.P,IC1,8,(PCINT21/OC0B/T1/PWM)PD5/5*%
%TO.N,Net-(IC1-Pad8)*%
X110744000Y-80772000D03*
%TO.P,IC1,9,(PCINT22/OC0A/AIN0/PWM)PD6/6*%
%TO.N,Net-(IC1-Pad9)*%
X110744000Y-78232000D03*
%TO.P,IC1,10,(PCINT23/AIN1)PD7/7*%
%TO.N,Net-(IC1-Pad10)*%
X110744000Y-75692000D03*
%TO.P,IC1,11,(PCINT0/CLKO/ICP1)PB0/8*%
%TO.N,ENABLE*%
X110744000Y-73152000D03*
%TO.P,IC1,12,(PCINT1/OC1A/PWM)PB1/9*%
%TO.N,Net-(IC1-Pad12)*%
X110744000Y-70612000D03*
%TO.P,IC1,13,(PCINT2/OC1B/~{SS}/PWM)PB2/10*%
%TO.N,DIR*%
X95504000Y-70612000D03*
%TO.P,IC1,14,(PCINT3/OC2A/MOSI/PWM)PB3/11*%
%TO.N,STEP*%
X95504000Y-73152000D03*
%TO.P,IC1,15,(PCINT4/MISO)PB4/12*%
%TO.N,Net-(IC1-Pad15)*%
X95504000Y-75692000D03*
%TO.P,IC1,16,(PCINT5/SCK)PB5/13*%
%TO.N,Net-(IC1-Pad16)*%
X95504000Y-78232000D03*
%TO.P,IC1,17,(PCINT8/ADC0)PC0/14/A0*%
%TO.N,Net-(IC1-Pad17)*%
X95504000Y-80772000D03*
%TO.P,IC1,18,(PCINT9/ADC1)PC1/15/A1*%
%TO.N,Net-(IC1-Pad18)*%
X95504000Y-83312000D03*
%TO.P,IC1,19,(PCINT10/ADC2)PC2/16/A2*%
%TO.N,Net-(IC1-Pad19)*%
X95504000Y-85852000D03*
%TO.P,IC1,20,(PCINT11/ADC3)PC3/17/A3*%
%TO.N,Net-(IC1-Pad20)*%
X95504000Y-88392000D03*
%TO.P,IC1,21,VCC*%
%TO.N,+5V*%
X95504000Y-90932000D03*
%TO.P,IC1,22,(PCINT14/~{RESET})PC6*%
%TO.N,RST*%
X95504000Y-93472000D03*
%TO.P,IC1,23,GND*%
%TO.N,GND*%
X95504000Y-96012000D03*
%TO.P,IC1,24,RAW*%
%TO.N,+9V*%
X95504000Y-98552000D03*
%TO.P,IC1,25,(PCINT12/SDA/ADC4)PC4/18/A4*%
%TO.N,Net-(IC1-Pad25)*%
X98044000Y-87122000D03*
%TO.P,IC1,26,(PCINT13/SCL/ADC5)PC5/19/A5*%
%TO.N,Net-(IC1-Pad26)*%
X98044000Y-89662000D03*
D20*
%TO.P,IC1,27,ADC6/A6*%
%TO.N,unconnected-(IC1-Pad27)*%
X98044000Y-70612000D03*
D19*
X98044000Y-76962000D03*
D20*
%TO.P,IC1,28,ADC7/A7*%
%TO.N,unconnected-(IC1-Pad28)*%
X100584000Y-70612000D03*
D19*
X98044000Y-79502000D03*
D20*
%TO.P,IC1,29,GND*%
%TO.N,GND*%
X103124000Y-70612000D03*
%TD*%
D12*
%TO.P,J4,1,Pin_1*%
%TO.N,Net-(IC1-Pad10)*%
X111775000Y-107442000D03*
D13*
%TO.P,J4,2,Pin_2*%
%TO.N,GND*%
X114315000Y-107442000D03*
%TO.P,J4,3,Pin_3*%
%TO.N,+5V*%
X116855000Y-107442000D03*
%TD*%
D14*
%TO.P,TP1,1,1*%
%TO.N,Net-(IC1-Pad15)*%
X92456000Y-72390000D03*
%TD*%
D12*
%TO.P,J7,1,Pin_1*%
%TO.N,Net-(IC1-Pad7)*%
X132857000Y-105395000D03*
D13*
%TO.P,J7,2,Pin_2*%
%TO.N,Net-(IC1-Pad8)*%
X132857000Y-107935000D03*
%TO.P,J7,3,Pin_3*%
%TO.N,GND*%
X130317000Y-105395000D03*
%TO.P,J7,4,Pin_4*%
%TO.N,+5V*%
X130317000Y-107935000D03*
%TD*%
D21*
%TO.P,J6,1,In*%
%TO.N,Net-(D3-Pad1)*%
X104044000Y-62484000D03*
D22*
%TO.P,J6,2,Ext*%
%TO.N,GND*%
X98044000Y-62484000D03*
D23*
%TO.P,J6,3*%
X101044000Y-67184000D03*
%TD*%
D24*
%TO.P,A1,1,GND*%
%TO.N,GND*%
X119136000Y-74422000D03*
D25*
%TO.P,A1,2,VDD*%
%TO.N,+5V*%
X119136000Y-76962000D03*
%TO.P,A1,3,1B*%
%TO.N,Net-(A1-Pad3)*%
X119136000Y-79502000D03*
%TO.P,A1,4,1A*%
%TO.N,Net-(A1-Pad4)*%
X119136000Y-82042000D03*
%TO.P,A1,5,2A*%
%TO.N,Net-(A1-Pad5)*%
X119136000Y-84582000D03*
%TO.P,A1,6,2B*%
%TO.N,Net-(A1-Pad6)*%
X119136000Y-87122000D03*
%TO.P,A1,7,GND*%
%TO.N,GND*%
X119136000Y-89662000D03*
%TO.P,A1,8,VMOT*%
%TO.N,+12V*%
X119136000Y-92202000D03*
%TO.P,A1,9,~{ENABLE}*%
%TO.N,ENABLE*%
X131836000Y-92202000D03*
%TO.P,A1,10,MS1*%
%TO.N,Net-(A1-Pad10)*%
X131836000Y-89662000D03*
%TO.P,A1,11,MS2*%
%TO.N,Net-(A1-Pad11)*%
X131836000Y-87122000D03*
%TO.P,A1,12,MS3*%
%TO.N,Net-(A1-Pad12)*%
X131836000Y-84582000D03*
%TO.P,A1,13,~{RESET}*%
%TO.N,Net-(A1-Pad13)*%
X131836000Y-82042000D03*
%TO.P,A1,14,~{SLEEP}*%
X131836000Y-79502000D03*
%TO.P,A1,15,STEP*%
%TO.N,STEP*%
X131836000Y-76962000D03*
%TO.P,A1,16,DIR*%
%TO.N,DIR*%
X131836000Y-74422000D03*
%TD*%
D12*
%TO.P,J9,1,Pin_1*%
%TO.N,Net-(IC1-Pad17)*%
X92202000Y-76200000D03*
D13*
%TO.P,J9,2,Pin_2*%
%TO.N,Net-(IC1-Pad18)*%
X92202000Y-78740000D03*
%TO.P,J9,3,Pin_3*%
%TO.N,Net-(IC1-Pad19)*%
X92202000Y-81280000D03*
%TO.P,J9,4,Pin_4*%
%TO.N,Net-(IC1-Pad20)*%
X92202000Y-83820000D03*
%TO.P,J9,5,Pin_5*%
%TO.N,Net-(IC1-Pad25)*%
X92202000Y-86360000D03*
%TO.P,J9,6,Pin_6*%
%TO.N,Net-(IC1-Pad26)*%
X92202000Y-88900000D03*
%TD*%
D14*
%TO.P,TP3,1,1*%
%TO.N,Net-(IC1-Pad1)*%
X114808000Y-99568000D03*
%TD*%
%TO.P,TP4,1,1*%
%TO.N,Net-(IC1-Pad12)*%
X114808000Y-71120000D03*
%TD*%
D12*
%TO.P,J8,1,Pin_1*%
%TO.N,+5V*%
X122951000Y-77729000D03*
D13*
%TO.P,J8,2,Pin_2*%
%TO.N,Net-(A1-Pad10)*%
X122951000Y-75189000D03*
%TO.P,J8,3,Pin_3*%
%TO.N,+5V*%
X125491000Y-77729000D03*
%TO.P,J8,4,Pin_4*%
%TO.N,Net-(A1-Pad11)*%
X125491000Y-75189000D03*
%TO.P,J8,5,Pin_5*%
%TO.N,+5V*%
X128031000Y-77729000D03*
%TO.P,J8,6,Pin_6*%
%TO.N,Net-(A1-Pad12)*%
X128031000Y-75189000D03*
%TD*%
D26*
%TO.P,R1,1*%
%TO.N,Net-(IC1-Pad16)*%
X103378000Y-78740000D03*
D25*
%TO.P,R1,2*%
%TO.N,Net-(D2-Pad2)*%
X103378000Y-86360000D03*
%TD*%
D24*
%TO.P,C1,1*%
%TO.N,+12V*%
X122810700Y-98298000D03*
D26*
%TO.P,C1,2*%
%TO.N,GND*%
X119310700Y-98298000D03*
%TD*%
D10*
%TO.P,D2,1,K*%
%TO.N,GND*%
X105400000Y-107442000D03*
D27*
%TO.P,D2,2,A*%
%TO.N,Net-(D2-Pad2)*%
X107940000Y-107442000D03*
%TD*%
D28*
%TO.N,unconnected-(IC1-Pad28)*%
X100584000Y-76424000D02*
X100584000Y-70612000D01*
X98581900Y-78426100D02*
X100584000Y-76424000D01*
X98044000Y-78426100D02*
X98581900Y-78426100D01*
X98044000Y-79502000D02*
X98044000Y-78426100D01*
%TO.N,unconnected-(IC1-Pad27)*%
X98044000Y-76962000D02*
X98044000Y-70612000D01*
%TO.N,Net-(IC1-Pad20)*%
X94890200Y-87316100D02*
X95504000Y-87316100D01*
X92569400Y-84995300D02*
X94890200Y-87316100D01*
X92202000Y-84995300D02*
X92569400Y-84995300D01*
X92202000Y-83820000D02*
X92202000Y-84995300D01*
X95504000Y-88392000D02*
X95504000Y-87316100D01*
%TO.N,Net-(IC1-Pad15)*%
X94682100Y-74616100D02*
X92456000Y-72390000D01*
X95504000Y-74616100D02*
X94682100Y-74616100D01*
X95504000Y-75692000D02*
X95504000Y-74616100D01*
%TO.N,Net-(IC1-Pad12)*%
X114300000Y-70612000D02*
X114808000Y-71120000D01*
X110744000Y-70612000D02*
X114300000Y-70612000D01*
%TO.N,Net-(IC1-Pad10)*%
X111775000Y-107442000D02*
X111775000Y-106266700D01*
X110744000Y-75692000D02*
X110744000Y-76767900D01*
X111282000Y-76767900D02*
X110744000Y-76767900D01*
X112638100Y-78124000D02*
X111282000Y-76767900D01*
X112638100Y-90967400D02*
X112638100Y-78124000D01*
X111403500Y-92202000D02*
X112638100Y-90967400D01*
X110127100Y-92202000D02*
X111403500Y-92202000D01*
X109292800Y-93036300D02*
X110127100Y-92202000D01*
X109292800Y-103147600D02*
X109292800Y-93036300D01*
X111775000Y-105629800D02*
X109292800Y-103147600D01*
X111775000Y-106266700D02*
X111775000Y-105629800D01*
%TO.N,Net-(IC1-Pad9)*%
X110744000Y-78232000D02*
X109318800Y-78232000D01*
X102232200Y-85318600D02*
X109318800Y-78232000D01*
X102232200Y-90999000D02*
X102232200Y-85318600D01*
X97033000Y-96198200D02*
X102232200Y-90999000D01*
X97033000Y-107950000D02*
X97033000Y-96198200D01*
%TO.N,Net-(IC1-Pad8)*%
X111281900Y-81847900D02*
X110744000Y-81847900D01*
X112187700Y-82753700D02*
X111281900Y-81847900D01*
X112187700Y-88876100D02*
X112187700Y-82753700D01*
X111401800Y-89662000D02*
X112187700Y-88876100D01*
X110122600Y-89662000D02*
X111401800Y-89662000D01*
X108842400Y-90942200D02*
X110122600Y-89662000D01*
X108842400Y-103652400D02*
X108842400Y-90942200D01*
X109946400Y-104756400D02*
X108842400Y-103652400D01*
X109946400Y-107829000D02*
X109946400Y-104756400D01*
X111231900Y-109114500D02*
X109946400Y-107829000D01*
X130869500Y-109114500D02*
X111231900Y-109114500D01*
X131681700Y-108302300D02*
X130869500Y-109114500D01*
X131681700Y-107935000D02*
X131681700Y-108302300D01*
X132857000Y-107935000D02*
X131681700Y-107935000D01*
X110744000Y-80772000D02*
X110744000Y-81847900D01*
%TO.N,Net-(IC1-Pad6)*%
X110744000Y-85852000D02*
X110744000Y-86927900D01*
X102113000Y-107950000D02*
X103288300Y-107950000D01*
X104005600Y-108667300D02*
X103288300Y-107950000D01*
X108447700Y-108667300D02*
X104005600Y-108667300D01*
X109179700Y-107935300D02*
X108447700Y-108667300D01*
X109179700Y-105376100D02*
X109179700Y-107935300D01*
X108388400Y-104584800D02*
X109179700Y-105376100D01*
X108388400Y-88745500D02*
X108388400Y-104584800D01*
X110206000Y-86927900D02*
X108388400Y-88745500D01*
X110744000Y-86927900D02*
X110206000Y-86927900D01*
%TO.N,Net-(IC1-Pad2)*%
X114554000Y-96012000D02*
X114808000Y-96266000D01*
X110744000Y-96012000D02*
X114554000Y-96012000D01*
%TO.N,Net-(IC1-Pad1)*%
X113792000Y-98552000D02*
X114808000Y-99568000D01*
X110744000Y-98552000D02*
X113792000Y-98552000D01*
%TO.N,Net-(D2-Pad2)*%
X103378000Y-86360000D02*
X103378000Y-87485300D01*
X107885300Y-107387300D02*
X107940000Y-107442000D01*
X107885300Y-91992600D02*
X107885300Y-107387300D01*
X103378000Y-87485300D02*
X107885300Y-91992600D01*
%TO.N,DIR*%
X95504000Y-69257400D02*
X95504000Y-70612000D01*
X100202100Y-64559300D02*
X95504000Y-69257400D01*
X106869100Y-64559300D02*
X100202100Y-64559300D01*
X108030200Y-63398200D02*
X106869100Y-64559300D01*
X130702600Y-63398200D02*
X108030200Y-63398200D01*
X131836000Y-64531600D02*
X130702600Y-63398200D01*
X131836000Y-74422000D02*
X131836000Y-64531600D01*
%TO.N,Net-(A1-Pad13)*%
X131836000Y-79502000D02*
X131836000Y-82042000D01*
%TO.N,Net-(A1-Pad10)*%
X131554700Y-88536700D02*
X131836000Y-88536700D01*
X126761000Y-83743000D02*
X131554700Y-88536700D01*
X126761000Y-77298000D02*
X126761000Y-83743000D01*
X125827300Y-76364300D02*
X126761000Y-77298000D01*
X124934200Y-76364300D02*
X125827300Y-76364300D01*
X124126300Y-75556400D02*
X124934200Y-76364300D01*
X124126300Y-75189000D02*
X124126300Y-75556400D01*
X122951000Y-75189000D02*
X124126300Y-75189000D01*
X131836000Y-89662000D02*
X131836000Y-88536700D01*
%TO.N,ENABLE*%
X111281900Y-74227900D02*
X110744000Y-74227900D01*
X115877200Y-78823200D02*
X111281900Y-74227900D01*
X115877200Y-95190600D02*
X115877200Y-78823200D01*
X115933600Y-95247000D02*
X115877200Y-95190600D01*
X115933600Y-105742500D02*
X115933600Y-95247000D01*
X115661000Y-106015100D02*
X115933600Y-105742500D01*
X115661000Y-107979400D02*
X115661000Y-106015100D01*
X116312500Y-108630900D02*
X115661000Y-107979400D01*
X117401300Y-108630900D02*
X116312500Y-108630900D01*
X125373800Y-100658400D02*
X117401300Y-108630900D01*
X125373800Y-97538900D02*
X125373800Y-100658400D01*
X130710700Y-92202000D02*
X125373800Y-97538900D01*
X131836000Y-92202000D02*
X130710700Y-92202000D01*
X110744000Y-73152000D02*
X110744000Y-74227900D01*
D29*
%TO.N,+12V*%
X116540600Y-67095900D02*
X115819000Y-66374300D01*
X116540600Y-89606600D02*
X116540600Y-67095900D01*
X119136000Y-92202000D02*
X116540600Y-89606600D01*
X115819000Y-65024000D02*
X115819000Y-66374300D01*
%TO.N,Net-(A1-Pad4)*%
X122526500Y-72555500D02*
X124470000Y-70612000D01*
X118675600Y-72555500D02*
X122526500Y-72555500D01*
X117835600Y-73395500D02*
X118675600Y-72555500D01*
X117835600Y-80741600D02*
X117835600Y-73395500D01*
X119136000Y-82042000D02*
X117835600Y-80741600D01*
%TO.N,+5V*%
X125491000Y-77729000D02*
X122951000Y-77729000D01*
X119136000Y-76962000D02*
X120436300Y-76962000D01*
X116855000Y-107442000D02*
X116855000Y-106091700D01*
X93676500Y-105783200D02*
X94493000Y-106599700D01*
X93676500Y-94194500D02*
X93676500Y-105783200D01*
X92202000Y-92720000D02*
X93676500Y-94194500D01*
X94493000Y-107950000D02*
X94493000Y-106599700D01*
X121203300Y-101743400D02*
X121203300Y-77729000D01*
X116855000Y-106091700D02*
X121203300Y-101743400D01*
X122951000Y-77729000D02*
X121203300Y-77729000D01*
X121203300Y-77729000D02*
X120436300Y-76962000D01*
D28*
%TO.N,GND*%
X91023100Y-105844800D02*
X91953000Y-106774700D01*
X91023100Y-99786900D02*
X91023100Y-105844800D01*
X91834700Y-98975300D02*
X91023100Y-99786900D01*
X92202000Y-98975300D02*
X91834700Y-98975300D01*
X92202000Y-97800000D02*
X92202000Y-98975300D01*
X91953000Y-107950000D02*
X91953000Y-106774700D01*
X119136000Y-74422000D02*
X120261300Y-74422000D01*
X129520000Y-65298000D02*
X129520000Y-66923300D01*
X119136000Y-89662000D02*
X119136000Y-88536700D01*
X125646000Y-71100200D02*
X125646000Y-69398100D01*
X122732600Y-74013600D02*
X125646000Y-71100200D01*
X120669700Y-74013600D02*
X122732600Y-74013600D01*
X120261300Y-74422000D02*
X120669700Y-74013600D01*
X128120800Y-66923300D02*
X129520000Y-66923300D01*
X125646000Y-69398100D02*
X128120800Y-66923300D01*
X93128300Y-108317400D02*
X93128300Y-107950000D01*
X93936200Y-109125300D02*
X93128300Y-108317400D01*
X100092400Y-109125300D02*
X93936200Y-109125300D01*
X100937600Y-108280100D02*
X100092400Y-109125300D01*
X100937600Y-107434600D02*
X100937600Y-108280100D01*
X101597600Y-106774600D02*
X100937600Y-107434600D01*
X103507300Y-106774600D02*
X101597600Y-106774600D01*
X104174700Y-107442000D02*
X103507300Y-106774600D01*
X105400000Y-107442000D02*
X104174700Y-107442000D01*
X91953000Y-107950000D02*
X93128300Y-107950000D01*
X120875500Y-69398100D02*
X120789400Y-69484200D01*
X125646000Y-69398100D02*
X120875500Y-69398100D01*
X118854700Y-88536700D02*
X119136000Y-88536700D01*
X117182000Y-86864000D02*
X118854700Y-88536700D01*
X117182000Y-73091600D02*
X117182000Y-86864000D01*
X120789400Y-69484200D02*
X117182000Y-73091600D01*
X103124000Y-67184000D02*
X103124000Y-70612000D01*
X103124000Y-67184000D02*
X101044000Y-67184000D01*
X117711000Y-66405900D02*
X120789400Y-69484200D01*
X117711000Y-65214500D02*
X117711000Y-66405900D01*
X116345100Y-63848600D02*
X117711000Y-65214500D01*
X109284500Y-63848600D02*
X116345100Y-63848600D01*
X108834200Y-64298900D02*
X109284500Y-63848600D01*
X108197400Y-64298900D02*
X108834200Y-64298900D01*
X105312300Y-67184000D02*
X108197400Y-64298900D01*
X103124000Y-67184000D02*
X105312300Y-67184000D01*
%TD*%
M02*
