M48
; DRILL file {KiCad 6.0.11-2627ca5db0~126~ubuntu20.04.1} date lun 24 giu 2024, 23:06:22
; FORMAT={-:-/ absolute / metric / decimal}
; #@! TF.CreationDate,2024-06-24T23:06:22+02:00
; #@! TF.GenerationSoftware,Kicad,Pcbnew,6.0.11-2627ca5db0~126~ubuntu20.04.1
; #@! TF.FileFunction,Plated,1,2,PTH
FMAT,2
METRIC
; #@! TA.AperFunction,Plated,PTH,ComponentDrill
T1C0.800
; #@! TA.AperFunction,Plated,PTH,ComponentDrill
T2C0.800
; #@! TA.AperFunction,Plated,PTH,ComponentDrill
T3C0.900
; #@! TA.AperFunction,Plated,PTH,ComponentDrill
T4C1.000
; #@! TA.AperFunction,Plated,PTH,ComponentDrill
T5C1.300
; #@! TA.AperFunction,Plated,PTH,ComponentDrill
T6C3.700
%
G90
G05
T1
X103.378Y-78.74
X103.378Y-86.36
X119.136Y-74.422
X119.136Y-76.962
X119.136Y-79.502
X119.136Y-82.042
X119.136Y-84.582
X119.136Y-87.122
X119.136Y-89.662
X119.136Y-92.202
X119.311Y-98.298
X122.811Y-98.298
X131.836Y-74.422
X131.836Y-76.962
X131.836Y-79.502
X131.836Y-82.042
X131.836Y-84.582
X131.836Y-87.122
X131.836Y-89.662
X131.836Y-92.202
T2
X95.504Y-70.612
X95.504Y-73.152
X95.504Y-75.692
X95.504Y-78.232
X95.504Y-80.772
X95.504Y-83.312
X95.504Y-85.852
X95.504Y-88.392
X95.504Y-90.932
X95.504Y-93.472
X95.504Y-96.012
X95.504Y-98.552
X98.044Y-70.612
X98.044Y-76.962
X98.044Y-79.502
X98.044Y-87.122
X98.044Y-89.662
X100.584Y-70.612
X103.124Y-70.612
X110.744Y-70.612
X110.744Y-73.152
X110.744Y-75.692
X110.744Y-78.232
X110.744Y-80.772
X110.744Y-83.312
X110.744Y-85.852
X110.744Y-88.392
X110.744Y-90.932
X110.744Y-93.472
X110.744Y-96.012
X110.744Y-98.552
T3
X105.4Y-107.442
X107.94Y-107.442
X108.712Y-59.182
X108.712Y-66.802
X120.396Y-59.182
X120.396Y-66.802
T4
X91.953Y-107.95
X92.202Y-76.2
X92.202Y-78.74
X92.202Y-81.28
X92.202Y-83.82
X92.202Y-86.36
X92.202Y-88.9
X92.202Y-92.72
X92.202Y-95.26
X92.202Y-97.8
X92.202Y-100.34
X94.493Y-107.95
X97.033Y-107.95
X99.573Y-107.95
X102.113Y-107.95
X111.775Y-107.442
X113.279Y-65.024
X114.315Y-107.442
X115.819Y-65.024
X116.855Y-107.442
X121.93Y-70.612
X122.951Y-75.189
X122.951Y-77.729
X124.47Y-70.612
X125.491Y-75.189
X125.491Y-77.729
X127.01Y-70.612
X128.031Y-75.189
X128.031Y-77.729
X129.55Y-70.612
X130.317Y-105.395
X130.317Y-107.935
X132.857Y-105.395
X132.857Y-107.935
T5
X129.52Y-60.298
X129.52Y-65.298
T6
X94.488Y-20.574
X103.378Y-97.79
X130.302Y-98.552
X130.556Y-20.32
T4
G00X98.044Y-61.484
M15
G01X98.044Y-63.484
M16
G05
G00X100.044Y-67.184
M15
G01X102.044Y-67.184
M16
G05
G00X104.044Y-61.484
M15
G01X104.044Y-63.484
M16
G05
T0
M30
